<?xml version='1.0' encoding='UTF-8' standalone='no'?>
<!-- Created with Fritzing (https://fritzing.org/) -->
<svg xmlns="http://www.w3.org/2000/svg" baseProfile="tiny" height="2.39877in" version="1.2" viewBox="0 0 79.9373 172.711" width="1.11024in" x="0in"  xmlns:svg="http://www.w3.org/2000/svg" y="0in">
 <g id="watermark" >
  <g >
   <g >
    <path d="M55.2053,166.511c-0.604,0,-1.131,0.325,-1.422,0.809l-2.796,0l3.96,-4.071c0.146,-0.146,0.289,-0.322,0.428,-0.521c0.149,-0.222,0.228,-0.479,0.228,-0.768c0,-0.279,-0.097,-0.518,-0.287,-0.71c-0.19,-0.188,-0.444,-0.287,-0.754,-0.287l-4.636,0c-0.305,0,-0.555,0.06,-0.742,0.17c-0.219,0.13,-0.33,0.368,-0.33,0.707c0,0.329,0.111,0.562,0.33,0.692c0.188,0.111,0.438,0.168,0.742,0.168l3.148,0l-3.974,4.086c-0.146,0.147,-0.289,0.315,-0.425,0.504c-0.153,0.212,-0.23,0.472,-0.23,0.771c0,0.28,0.096,0.521,0.288,0.711c0.188,0.188,0.442,0.285,0.754,0.285l4.315,0c0.293,0.467,0.812,0.776,1.4,0.776c0.916,0,1.66,-0.744,1.66,-1.661C56.8643,167.256,56.1193,166.511,55.2053,166.511zM55.2053,168.774c-0.334,0,-0.604,-0.271,-0.604,-0.604c0,-0.333,0.27,-0.604,0.604,-0.604c0.332,0,0.604,0.271,0.604,0.604C55.8083,168.505,55.5373,168.774,55.2053,168.774z" fill="#8C8C8C" />
    <path d="M38.2623,156.469c-0.914,0,-1.659,0.745,-1.659,1.66c0,0.916,0.745,1.66,1.659,1.66s1.658,-0.744,1.658,-1.66C39.9223,157.214,39.1783,156.469,38.2623,156.469zM38.2633,158.732c-0.333,0,-0.604,-0.27,-0.604,-0.603s0.271,-0.603,0.604,-0.603c0.331,0,0.604,0.27,0.604,0.603S38.5943,158.732,38.2633,158.732z" fill="#8C8C8C" />
    <path d="M46.7833,161.131c-0.193,-0.111,-0.439,-0.169,-0.732,-0.169l-1.465,0L44.5863,158.44c0,-0.292,-0.057,-0.538,-0.166,-0.729C44.3303,157.554,44.1373,157.369,43.7273,157.369c-0.34,0,-0.578,0.116,-0.709,0.342c-0.109,0.193,-0.167,0.438,-0.167,0.729l0,2.521l-0.481,0c-0.295,0,-0.539,0.06,-0.731,0.169c-0.228,0.129,-0.341,0.368,-0.341,0.708c0,0.412,0.185,0.603,0.341,0.692c0.192,0.111,0.438,0.168,0.731,0.168l0.481,0l0,4.362c0,0.277,0.026,0.533,0.081,0.768c0.056,0.246,0.154,0.464,0.298,0.645c0.146,0.186,0.345,0.332,0.595,0.436c0.241,0.098,0.555,0.146,0.93,0.146l0.896,0c0.292,0,0.539,-0.054,0.731,-0.166c0.154,-0.089,0.341,-0.281,0.341,-0.693c0,-0.338,-0.114,-0.578,-0.341,-0.709c-0.192,-0.109,-0.439,-0.168,-0.731,-0.168l-0.821,0c-0.138,0,-0.19,-0.019,-0.207,-0.024c-0.014,-0.034,-0.035,-0.103,-0.035,-0.231L44.5883,162.699l1.465,0c0.295,0,0.541,-0.057,0.734,-0.168c0.152,-0.09,0.34,-0.28,0.34,-0.692C47.1233,161.499,47.0103,161.26,46.7833,161.131z" fill="#8C8C8C" />
    <path d="M38.3283,160.961l-1.191,0c-0.292,0,-0.538,0.059,-0.731,0.169c-0.226,0.129,-0.341,0.368,-0.341,0.708c0,0.412,0.188,0.604,0.341,0.691c0.193,0.113,0.439,0.168,0.731,0.168l0.544,0l0,5.362c0,0.293,0.057,0.539,0.167,0.73c0.131,0.227,0.367,0.341,0.708,0.341c0.411,0,0.604,-0.187,0.692,-0.341c0.111,-0.191,0.168,-0.438,0.168,-0.73L39.4163,162.049c0,-0.386,-0.084,-0.656,-0.256,-0.83C38.9853,161.047,38.7153,160.961,38.3283,160.961z" fill="#8C8C8C" />
    <path d="M34.4933,161.131c-0.193,-0.111,-0.44,-0.169,-0.732,-0.169l-0.604,0c-0.25,0,-0.498,0.063,-0.734,0.187c-0.226,0.119,-0.433,0.271,-0.616,0.453l-0.644,0.604l0,-0.247c0,-0.291,-0.055,-0.538,-0.168,-0.729c-0.128,-0.228,-0.368,-0.34,-0.707,-0.34c-0.41,0,-0.604,0.184,-0.693,0.34c-0.11,0.191,-0.167,0.438,-0.167,0.729l0,4.801c-0.475,0.293,-0.791,0.816,-0.791,1.412c0,0.917,0.745,1.661,1.658,1.661c0.916,0,1.66,-0.744,1.66,-1.661c0,-0.596,-0.317,-1.119,-0.792,-1.412l0,-2.21l1.738,-1.564c0.1,-0.09,0.199,-0.164,0.297,-0.217c0.084,-0.045,0.174,-0.067,0.274,-0.067l0.288,0c0.292,0,0.539,-0.056,0.732,-0.169c0.155,-0.088,0.339,-0.279,0.339,-0.691C34.8333,161.499,34.7183,161.26,34.4933,161.131zM30.2943,168.774c-0.332,0,-0.603,-0.271,-0.603,-0.604c0,-0.333,0.271,-0.604,0.603,-0.604c0.333,0,0.604,0.271,0.604,0.604C30.8983,168.505,30.6273,168.774,30.2943,168.774z" fill="#8C8C8C" />
    <path d="M27.7773,157.612c-0.193,-0.111,-0.44,-0.167,-0.731,-0.167l-0.59,0c-0.2,0,-0.389,0.004,-0.562,0.016c-0.176,0.009,-0.345,0.035,-0.506,0.07c-0.168,0.041,-0.336,0.109,-0.496,0.202c-0.158,0.093,-0.319,0.222,-0.48,0.382c-0.334,0.314,-0.554,0.656,-0.652,1.017c-0.094,0.348,-0.143,0.735,-0.143,1.151l0,0.678l-0.483,0c-0.292,0,-0.539,0.059,-0.73,0.169c-0.227,0.13,-0.342,0.369,-0.342,0.708c0,0.412,0.185,0.604,0.341,0.693c0.191,0.111,0.438,0.166,0.73,0.166l0.483,0l0,5.362c0,0.293,0.057,0.539,0.167,0.73c0.13,0.227,0.367,0.341,0.708,0.341c0.411,0,0.603,-0.187,0.692,-0.341c0.111,-0.191,0.168,-0.438,0.168,-0.73l0,-5.36l0.92,0c0.293,0,0.54,-0.057,0.732,-0.168c0.155,-0.09,0.34,-0.28,0.34,-0.692c0,-0.34,-0.114,-0.579,-0.34,-0.708c-0.189,-0.111,-0.436,-0.17,-0.729,-0.17l-0.92,0l0,-0.678c0,-0.218,0.019,-0.41,0.056,-0.571c0.032,-0.141,0.103,-0.261,0.218,-0.367l0.002,-0.004l0.002,-0.002c0.082,-0.082,0.176,-0.126,0.29,-0.136c0.15,-0.015,0.339,-0.022,0.564,-0.022l0.56,0c0.291,0,0.539,-0.058,0.731,-0.168c0.154,-0.088,0.339,-0.281,0.339,-0.693C28.1173,157.981,28.0023,157.742,27.7773,157.612z" fill="#8C8C8C" />
    <path d="M79.7703,161.229c-0.089,-0.156,-0.282,-0.34,-0.693,-0.34c-0.339,0,-0.578,0.113,-0.707,0.34c-0.078,0.133,-0.127,0.293,-0.152,0.477l-0.021,-0.021c-0.216,-0.236,-0.466,-0.42,-0.747,-0.539c-0.277,-0.119,-0.563,-0.183,-0.849,-0.183l-0.709,0c-0.249,0,-0.466,0.015,-0.64,0.041c-0.182,0.026,-0.352,0.074,-0.51,0.14c-0.158,0.066,-0.313,0.15,-0.459,0.254c-0.139,0.097,-0.303,0.226,-0.486,0.377c-0.188,0.156,-0.342,0.302,-0.463,0.434c-0.127,0.141,-0.23,0.293,-0.306,0.455c-0.069,0.16,-0.122,0.337,-0.147,0.523c-0.026,0.178,-0.041,0.391,-0.041,0.631l0,2.386c0,0.24,0.015,0.451,0.041,0.631c0.025,0.188,0.078,0.361,0.147,0.521c0.074,0.164,0.179,0.318,0.306,0.457c0.119,0.129,0.274,0.274,0.463,0.433c0.186,0.153,0.35,0.28,0.486,0.379c0.146,0.103,0.299,0.188,0.459,0.254c0.158,0.065,0.329,0.112,0.51,0.14c0.174,0.026,0.389,0.039,0.64,0.039l0.709,0c0.298,0,0.591,-0.066,0.87,-0.199c0.244,-0.114,0.492,-0.291,0.73,-0.523l0,1.434c0,0.18,-0.025,0.334,-0.072,0.465c-0.043,0.119,-0.159,0.258,-0.344,0.406c-0.154,0.127,-0.309,0.217,-0.457,0.264c-0.15,0.049,-0.341,0.074,-0.563,0.074l-2.203,0c-0.293,0,-0.538,0.055,-0.732,0.166c-0.152,0.088,-0.34,0.282,-0.34,0.692c0,0.341,0.115,0.579,0.34,0.71c0.194,0.109,0.439,0.167,0.732,0.167l2.326,0c0.247,0,0.463,-0.015,0.638,-0.041c0.179,-0.026,0.351,-0.073,0.513,-0.14c0.153,-0.064,0.31,-0.15,0.455,-0.254c0.143,-0.101,0.305,-0.227,0.487,-0.379c0.185,-0.153,0.343,-0.299,0.463,-0.431c0.128,-0.141,0.229,-0.294,0.304,-0.456c0.071,-0.162,0.123,-0.338,0.148,-0.523c0.025,-0.182,0.041,-0.393,0.041,-0.631l0,-7.898C79.9373,161.667,79.8833,161.42,79.7703,161.229zM78.2013,165.689c0,0.188,-0.062,0.35,-0.188,0.49c-0.15,0.172,-0.394,0.403,-0.716,0.686l-0.002,0.003l-0.002,0.004c-0.139,0.13,-0.291,0.237,-0.453,0.325c-0.148,0.082,-0.325,0.121,-0.526,0.121L76.0133,167.318c-0.222,0,-0.41,-0.021,-0.563,-0.072c-0.148,-0.049,-0.301,-0.137,-0.453,-0.264c-0.231,-0.186,-0.315,-0.322,-0.346,-0.404c-0.049,-0.131,-0.072,-0.285,-0.072,-0.465l0,-2.206c0,-0.18,0.023,-0.336,0.072,-0.467c0.029,-0.082,0.113,-0.217,0.346,-0.403c0.152,-0.127,0.305,-0.216,0.453,-0.265c0.153,-0.049,0.342,-0.072,0.563,-0.072l0.301,0c0.212,0,0.388,0.037,0.526,0.113c0.152,0.082,0.308,0.191,0.457,0.324c0.322,0.293,0.564,0.529,0.716,0.7c0.128,0.146,0.188,0.304,0.188,0.492L78.2013,165.689z" fill="#8C8C8C" />
    <path d="M59.7913,156.469c-0.914,0,-1.66,0.745,-1.66,1.66c0,0.916,0.746,1.66,1.66,1.66s1.66,-0.744,1.66,-1.66C61.4513,157.214,60.7053,156.469,59.7913,156.469zM59.7913,158.732c-0.332,0,-0.604,-0.27,-0.604,-0.603s0.271,-0.603,0.604,-0.603s0.604,0.27,0.604,0.603C60.3953,158.462,60.1233,158.732,59.7913,158.732z" fill="#8C8C8C" />
    <path d="M70.4773,166.737l-0.107,-3.419c-0.011,-0.178,-0.021,-0.338,-0.031,-0.489c-0.01,-0.162,-0.037,-0.322,-0.082,-0.476c-0.045,-0.158,-0.11,-0.309,-0.198,-0.453c-0.093,-0.146,-0.216,-0.289,-0.37,-0.42c-0.225,-0.192,-0.443,-0.334,-0.646,-0.416c-0.207,-0.084,-0.461,-0.127,-0.754,-0.127l-1.012,0c-0.259,0,-0.501,0.058,-0.716,0.164c-0.197,0.098,-0.39,0.203,-0.572,0.315l-0.003,0.002l-0.003,0.003l-0.837,0.555l0,-0.041c0,-0.291,-0.057,-0.539,-0.168,-0.733c-0.129,-0.226,-0.367,-0.339,-0.707,-0.339c-0.411,0,-0.604,0.185,-0.693,0.339c-0.109,0.194,-0.168,0.438,-0.168,0.733l0,6.099c0,0.295,0.059,0.539,0.168,0.734c0.09,0.153,0.282,0.338,0.693,0.338c0.34,0,0.578,-0.114,0.707,-0.338c0.111,-0.195,0.168,-0.439,0.168,-0.734L65.1463,163.999l1.953,-1.215c0.04,-0.024,0.082,-0.048,0.121,-0.063c0.031,-0.016,0.07,-0.025,0.115,-0.031c0.049,-0.012,0.117,-0.016,0.195,-0.016l0.362,0c0.188,0,0.334,0.021,0.435,0.059c0.082,0.029,0.143,0.076,0.18,0.143c0.05,0.078,0.08,0.18,0.098,0.303c0.02,0.139,0.034,0.309,0.045,0.504l0.096,3.097c-0.457,0.297,-0.762,0.811,-0.762,1.394c0,0.917,0.746,1.661,1.66,1.661c0.916,0,1.66,-0.744,1.66,-1.661C71.3033,167.562,70.9703,167.024,70.4773,166.737zM69.6433,168.774c-0.334,0,-0.602,-0.271,-0.602,-0.604c0,-0.333,0.268,-0.604,0.602,-0.604c0.333,0,0.604,0.271,0.604,0.604C70.2483,168.505,69.9763,168.774,69.6433,168.774z" fill="#8C8C8C" />
    <path d="M59.8543,160.961l-1.193,0c-0.293,0,-0.539,0.059,-0.731,0.169c-0.226,0.129,-0.341,0.368,-0.341,0.708c0,0.412,0.186,0.604,0.341,0.691c0.192,0.113,0.438,0.168,0.731,0.168l0.545,0l0,5.362c0,0.293,0.055,0.539,0.168,0.73c0.127,0.227,0.365,0.341,0.707,0.341c0.41,0,0.604,-0.187,0.691,-0.341c0.111,-0.191,0.17,-0.438,0.17,-0.73L60.9423,162.049c0,-0.386,-0.085,-0.656,-0.259,-0.83C60.5113,161.047,60.2383,160.961,59.8543,160.961z" fill="#8C8C8C" />
   </g>
  </g>
 </g>
 <g partID="855147850">
  <g id="breadboard">
   <rect fill="#4d4d4d" gorn="0.3.0" height="146.835" id="rect5" rx="3.17324" ry="3.06969" stroke-width="0.20142" width="79.937" x="0" y="0"/>
   <rect fill="#cccccc" gorn="0.3.1" height="5.7117" id="rect7" stroke-width="0.192068" width="2.9134" x="54.7779" y="71.9576"/>
   <rect fill="#cccccc" gorn="0.3.2" height="5.7117" id="rect9" stroke-width="0.192068" width="2.9134" x="51.253" y="71.9576"/>
   <rect fill="#cccccc" gorn="0.3.3" height="5.7117" id="rect11" stroke-width="0.192068" width="2.9134" x="47.5843" y="71.9576"/>
   <rect fill="#cccccc" gorn="0.3.4" height="5.7117" id="rect13" stroke-width="0.192068" width="2.9134" x="43.8437" y="71.9576"/>
   <rect fill="#cccccc" gorn="0.3.5" height="5.7117" id="rect15" stroke-width="0.192068" width="2.9134" x="40.1749" y="71.9576"/>
   <rect fill="#cccccc" gorn="0.3.6" height="5.7117" id="rect17" stroke-width="0.192068" width="2.9134" x="36.5062" y="71.9576"/>
   <rect fill="#cccccc" gorn="0.3.7" height="5.7117" id="rect19" stroke-width="0.192068" width="2.9134" x="32.7655" y="71.9576"/>
   <rect fill="#cccccc" gorn="0.3.8" height="5.7117" id="rect21" stroke-width="0.192068" width="2.9134" x="29.0968" y="71.9576"/>
   <rect fill="#cccccc" gorn="0.3.9" height="5.7117" id="rect23" stroke-width="0.192068" width="2.9134" x="25.4281" y="71.9576"/>
   <rect fill="#cccccc" gorn="0.3.10" height="5.7117" id="rect25" stroke-width="0.192068" width="2.9134" x="21.6874" y="71.9576"/>
   <rect fill="#cccccc" gorn="0.3.11.0" height="2.87775" id="rect28" stroke-width="0.20142" width="2.87775" x="11.127" y="69.2956"/>
   <rect fill="#cccccc" gorn="0.3.12.0" height="2.87775" id="rect40" stroke-width="0.20142" width="2.87743" x="11.127" y="65.6986"/>
   <rect fill="#cccccc" gorn="0.3.13.0" height="2.87775" id="rect52" stroke-width="0.20142" width="2.87775" x="11.127" y="62.1023"/>
   <rect fill="#cccccc" gorn="0.3.14.0" height="2.87775" id="rect64" stroke-width="0.20142" width="2.87775" x="11.127" y="58.5053"/>
   <rect fill="#cccccc" gorn="0.3.15.0" height="2.87775" id="rect76" stroke-width="0.20142" width="2.87775" x="11.127" y="54.9083"/>
   <rect fill="#cccccc" gorn="0.3.16.0" height="2.87775" id="rect88" stroke-width="0.20142" width="2.87775" x="11.127" y="51.3121"/>
   <rect fill="#cccccc" gorn="0.3.17.0" height="2.87775" id="rect100" stroke-width="0.20142" width="2.87775" x="11.127" y="47.7151"/>
   <rect fill="#cccccc" gorn="0.3.18.0" height="2.87775" id="rect112" stroke-width="0.20142" width="2.87775" x="11.127" y="44.1181"/>
   <rect fill="#cccccc" gorn="0.3.19.0" height="2.87775" id="rect124" stroke-width="0.20142" width="2.87775" x="11.127" y="40.5211"/>
   <rect fill="#cccccc" gorn="0.3.20.0" height="2.87775" id="rect136" stroke-width="0.20142" width="2.87775" x="11.127" y="36.9248"/>
   <rect fill="#cccccc" gorn="0.3.21.0" height="2.87775" id="rect148" stroke-width="0.20142" width="2.87775" x="11.127" y="33.3278"/>
   <rect fill="#cccccc" gorn="0.3.22.0" height="2.87775" id="rect160" stroke-width="0.20142" width="2.87775" x="11.127" y="29.7308"/>
   <rect fill="#cccccc" gorn="0.3.23.0" height="2.87775" id="rect172" stroke-width="0.20142" width="2.87775" x="11.127" y="26.1346"/>
   <rect fill="#cccccc" gorn="0.3.24.0" height="2.87775" id="rect184" stroke-width="0.20142" width="2.87775" x="11.127" y="22.5376"/>
   <rect fill="#cccccc" gorn="0.3.25.0" height="2.87775" id="rect197" stroke-width="0.20142" width="2.87775" x="65.9992" y="69.2956"/>
   <rect fill="#cccccc" gorn="0.3.26.0" height="2.87775" id="rect209" stroke-width="0.20142" width="2.87775" x="65.9992" y="65.6986"/>
   <rect fill="#cccccc" gorn="0.3.27.0" height="2.87775" id="rect221" stroke-width="0.20142" width="2.87775" x="65.9992" y="62.1023"/>
   <rect fill="#cccccc" gorn="0.3.28.0" height="2.87775" id="rect233" stroke-width="0.20142" width="2.87775" x="65.9992" y="58.5053"/>
   <rect fill="#cccccc" gorn="0.3.29.0" height="2.87775" id="rect245" stroke-width="0.20142" width="2.87775" x="65.9992" y="54.9083"/>
   <rect fill="#cccccc" gorn="0.3.30.0" height="2.87775" id="rect257" stroke-width="0.20142" width="2.87775" x="65.9992" y="51.3121"/>
   <rect fill="#cccccc" gorn="0.3.31.0" height="2.87775" id="rect269" stroke-width="0.20142" width="2.87775" x="65.9992" y="47.7151"/>
   <rect fill="#cccccc" gorn="0.3.32.0" height="2.87775" id="rect281" stroke-width="0.20142" width="2.87775" x="65.9992" y="44.1181"/>
   <rect fill="#cccccc" gorn="0.3.33.0" height="2.87775" id="rect293" stroke-width="0.20142" width="2.87775" x="65.9992" y="40.5211"/>
   <rect fill="#cccccc" gorn="0.3.34.0" height="2.87775" id="rect305" stroke-width="0.20142" width="2.87775" x="65.9992" y="36.9248"/>
   <rect fill="#cccccc" gorn="0.3.35.0" height="2.87775" id="rect317" stroke-width="0.20142" width="2.87775" x="65.9992" y="33.3278"/>
   <rect fill="#cccccc" gorn="0.3.36.0" height="2.87775" id="rect329" stroke-width="0.20142" width="2.87775" x="65.9992" y="29.7308"/>
   <rect fill="#cccccc" gorn="0.3.37.0" height="2.87775" id="rect341" stroke-width="0.20142" width="2.87775" x="65.9992" y="26.1346"/>
   <rect fill="#cccccc" gorn="0.3.38.0" height="2.87775" id="rect353" stroke-width="0.20142" width="2.87775" x="65.9992" y="22.5376"/>
   <rect fill="#1a1a1a" gorn="0.3.39" height="71.9358" id="rect366" stroke-width="0.192068" width="52.0815" x="13.9184" y="2.46767"/>
   <line fill="none" gorn="0.3.40" id="line368" stroke="#4d4d4d" stroke-width="2.14369" x1="15.8606" x2="64.0576" y1="22.0342" y2="22.0342"/>
   <rect fill="#999999" gorn="0.3.41" height="49.8515" id="rect370" rx="0.776906" ry="0.762519" stroke="#ffffff" stroke-width="0.504989" width="47.046" x="16.6519" y="22.6097"/>
   <path d="m54.9217,73.0368l2.52495,0l0,1.33081l-0.582679,0c0,-0.380534,-0.194226,-0.762516,-0.58268,-0.762516,-0.388453,0,-0.58268,0.380541,-0.58268,0.762516l-0.582679,0l0,-1.33081z" fill="#fff39d" gorn="0.3.42" id="path372" stroke-width="0.192068"/>
   <path d="m51.253,73.0368l2.52495,0l0,1.33081l-0.582679,0c0,-0.380534,-0.194227,-0.762516,-0.58268,-0.762516,-0.388454,0,-0.58268,0.380541,-0.58268,0.762516l-0.58268,0l0,-1.33081z" fill="#fff39d" gorn="0.3.43" id="path374" stroke-width="0.192068"/>
   <path d="m47.5843,73.0368l2.52495,0l0,1.33081l-0.58268,0c0,-0.380534,-0.194226,-0.762516,-0.582679,-0.762516,-0.388454,0,-0.58268,0.380541,-0.58268,0.762516L47.7785,74.3673l0,-1.33081z" fill="#fff39d" gorn="0.3.44" id="path376" stroke-width="0.192068"/>
   <path d="m44.0595,73.0368l2.52495,0l0,1.33081l-0.58268,0c0,-0.380534,-0.194226,-0.762516,-0.58268,-0.762516,-0.388453,0,-0.58268,0.380541,-0.58268,0.762516l-0.582679,0l0,-1.33081z" fill="#fff39d" gorn="0.3.45" id="path378" stroke-width="0.192068"/>
   <path d="m40.3908,73.0368l2.52495,0l0,1.33081l-0.582679,0c0,-0.380534,-0.194227,-0.762516,-0.58268,-0.762516,-0.388454,0,-0.58268,0.380541,-0.58268,0.762516l-0.58268,0l0,-1.33081z" fill="#fff39d" gorn="0.3.46" id="path380" stroke-width="0.192068"/>
   <path d="m36.6501,73.0368l2.52495,0l0,1.33081l-0.582679,0c0,-0.380534,-0.194227,-0.762516,-0.58268,-0.762516,-0.388454,0,-0.58268,0.380541,-0.58268,0.762516l-0.58268,0l0,-1.33081z" fill="#fff39d" gorn="0.3.47" id="path382" stroke-width="0.192068"/>
   <path d="m32.9813,73.0368l2.52495,0l0,1.33081l-0.58268,0c0,-0.380534,-0.194226,-0.762516,-0.582679,-0.762516,-0.388454,0,-0.58268,0.380541,-0.58268,0.762516l-0.58268,0l0,-1.33081z" fill="#fff39d" gorn="0.3.48" id="path384" stroke-width="0.192068"/>
   <path d="m29.3126,73.0368l2.52495,0l0,1.33081l-0.58268,0c0,-0.380534,-0.194226,-0.762516,-0.58268,-0.762516,-0.388453,0,-0.582679,0.380541,-0.582679,0.762516l-0.58268,0l0,-1.33081z" fill="#fff39d" gorn="0.3.49" id="path386" stroke-width="0.192068"/>
   <path d="m25.5719,73.0368l2.52495,0l0,1.33081l-0.58268,0c0,-0.380534,-0.194226,-0.762516,-0.58268,-0.762516,-0.388453,0,-0.582679,0.380541,-0.582679,0.762516l-0.58268,0l0,-1.33081z" fill="#fff39d" gorn="0.3.50" id="path388" stroke-width="0.192068"/>
   <path d="m21.9033,73.0368l2.52495,0l0,1.33081l-0.58268,0c0,-0.380534,-0.194226,-0.762516,-0.58268,-0.762516,-0.388453,0,-0.58268,0.380541,-0.58268,0.762516l-0.582679,0l0,-1.33081z" fill="#fff39d" gorn="0.3.51" id="path390" stroke-width="0.192068"/>
   <path d="m15.2852,69.4399l0,2.47459l-1.35958,0l0,-0.57117c0.388453,0,0.776909,-0.190629,0.776909,-0.571169,0,-0.380541,-0.388454,-0.57117,-0.776909,-0.57117l0,-0.57117l1.35958,0z" fill="#fff39d" gorn="0.3.52" id="path394" stroke-width="0.192068"/>
   <path d="m15.2852,65.843l0,2.47459l-1.35958,0l0,-0.571169c0.388453,0,0.776909,-0.19063,0.776909,-0.57117,0,-0.38054,-0.388454,-0.57117,-0.776909,-0.57117l0,-0.57117l1.35958,0z" fill="#fff39d" gorn="0.3.53" id="path396" stroke-width="0.192068"/>
   <path d="m15.2852,62.2463l0,2.47459l-1.35958,0l0,-0.57117c0.388453,0,0.776909,-0.19063,0.776909,-0.57117,0,-0.38054,-0.388454,-0.57117,-0.776909,-0.57117l0,-0.571169l1.35958,0z" fill="#fff39d" gorn="0.3.54" id="path398" stroke-width="0.192068"/>
   <path d="m15.2852,58.5775l0,2.47459l-1.35958,0l0,-0.57117c0.388453,0,0.776909,-0.190629,0.776909,-0.571169,0,-0.38054,-0.388454,-0.57117,-0.776909,-0.57117L13.9256,58.7675l1.35958,0z" fill="#fff39d" gorn="0.3.55" id="path400" stroke-width="0.192068"/>
   <path d="m15.2852,54.9808l0,2.47459l-1.35958,0l0,-0.571169c0.388453,0,0.776909,-0.19063,0.776909,-0.57117,0,-0.38054,-0.388454,-0.57117,-0.776909,-0.57117l0,-0.57117l1.35958,0z" fill="#fff39d" gorn="0.3.56" id="path402" stroke-width="0.192068"/>
   <path d="m15.2852,51.384l0,2.47459l-1.35958,0l0,-0.57117c0.388453,0,0.776909,-0.19063,0.776909,-0.57117,0,-0.38054,-0.388454,-0.57117,-0.776909,-0.57117l0,-0.571169l1.35958,0z" fill="#fff39d" gorn="0.3.57" id="path404" stroke-width="0.192068"/>
   <path d="m15.2852,47.931l0,2.47459l-1.35958,0l0,-0.571169c0.388453,0,0.776909,-0.19063,0.776909,-0.57117,0,-0.38054,-0.388454,-0.57117,-0.776909,-0.57117l0,-0.571169l1.35958,0z" fill="#fff39d" gorn="0.3.58" id="path406" stroke-width="0.192068"/>
   <path d="m15.2852,44.3343l0,2.47459l-1.35958,0l0,-0.57117c0.388453,0,0.776909,-0.19063,0.776909,-0.57117,0,-0.38054,-0.388454,-0.571169,-0.776909,-0.571169l0,-0.57117l1.35958,0z" fill="#fff39d" gorn="0.3.59" id="path408" stroke-width="0.192068"/>
   <path d="m15.2852,40.7375l0,2.47459l-1.35958,0l0,-0.57117c0.388453,0,0.776909,-0.190629,0.776909,-0.571169,0,-0.380541,-0.388454,-0.57117,-0.776909,-0.57117l0,-0.57117l1.35958,0z" fill="#fff39d" gorn="0.3.60" id="path410" stroke-width="0.192068"/>
   <path d="m15.2852,37.0688l0,2.47459l-1.35958,0l0,-0.571169c0.388453,0,0.776909,-0.19063,0.776909,-0.57117,0,-0.38054,-0.388454,-0.57117,-0.776909,-0.57117l0,-0.571169l1.35958,0z" fill="#fff39d" gorn="0.3.61" id="path412" stroke-width="0.192068"/>
   <path d="M15.2852,33.472L15.2852,35.9466l-1.35958,0l0,-0.57117c0.388453,0,0.776909,-0.19063,0.776909,-0.57117,0,-0.38054,-0.388454,-0.571169,-0.776909,-0.571169l0,-0.57117l1.35958,0z" fill="#fff39d" gorn="0.3.62" id="path414" stroke-width="0.192068"/>
   <path d="m15.2852,29.8752l0,2.47459l-1.35958,0l0,-0.57117c0.388453,0,0.776909,-0.190629,0.776909,-0.571169,0,-0.380541,-0.388454,-0.57117,-0.776909,-0.57117l0,-0.57117l1.35958,0z" fill="#fff39d" gorn="0.3.63" id="path416" stroke-width="0.192068"/>
   <path d="m15.2852,26.2784l0,2.47459l-1.35958,0l0,-0.571169c0.388453,0,0.776909,-0.19063,0.776909,-0.57117,0,-0.38054,-0.388454,-0.57117,-0.776909,-0.57117l0,-0.57117l1.35958,0z" fill="#fff39d" gorn="0.3.64" id="path418" stroke-width="0.192068"/>
   <path d="m15.2852,22.6096l0,2.47459l-1.35958,0l0,-0.57117c0.388453,0,0.776909,-0.19063,0.776909,-0.57117,0,-0.38054,-0.388454,-0.571169,-0.776909,-0.571169l0,-0.57117l1.35958,0z" fill="#fff39d" gorn="0.3.65" id="path420" stroke-width="0.192068"/>
   <path d="m64.8489,69.4399l0,2.47459l1.35958,0l0,-0.57117c-0.388453,0,-0.776909,-0.190629,-0.776909,-0.571169,0,-0.380541,0.388454,-0.57117,0.776909,-0.57117L66.2085,69.6297L64.8489,69.6297Z" fill="#fff39d" gorn="0.3.66" id="path424" stroke-width="0.192068"/>
   <path d="m64.8489,65.843l0,2.47459l1.35958,0l0,-0.571169c-0.388453,0,-0.776909,-0.19063,-0.776909,-0.57117,0,-0.38054,0.388454,-0.57117,0.776909,-0.57117L66.2085,66.033L64.8489,66.033Z" fill="#fff39d" gorn="0.3.67" id="path426" stroke-width="0.192068"/>
   <path d="m64.8489,62.2463l0,2.47459l1.35958,0l0,-0.57117c-0.388453,0,-0.776909,-0.19063,-0.776909,-0.57117,0,-0.38054,0.388454,-0.57117,0.776909,-0.57117l0,-0.571169L64.8489,62.4362Z" fill="#fff39d" gorn="0.3.68" id="path428" stroke-width="0.192068"/>
   <path d="m64.8489,58.5775l0,2.47459l1.35958,0l0,-0.57117c-0.388453,0,-0.776909,-0.190629,-0.776909,-0.571169,0,-0.38054,0.388454,-0.57117,0.776909,-0.57117L66.2085,58.7675L64.8489,58.7675Z" fill="#fff39d" gorn="0.3.69" id="path430" stroke-width="0.192068"/>
   <path d="m64.8489,54.9808l0,2.47459l1.35958,0l0,-0.571169c-0.388453,0,-0.776909,-0.19063,-0.776909,-0.57117,0,-0.38054,0.388454,-0.57117,0.776909,-0.57117L66.2085,55.1707L64.8489,55.1707Z" fill="#fff39d" gorn="0.3.70" id="path432" stroke-width="0.192068"/>
   <path d="m64.8489,51.384l0,2.47459l1.35958,0l0,-0.57117c-0.388453,0,-0.776909,-0.19063,-0.776909,-0.57117,0,-0.38054,0.388454,-0.57117,0.776909,-0.57117l0,-0.571169L64.8489,51.5739Z" fill="#fff39d" gorn="0.3.71" id="path434" stroke-width="0.192068"/>
   <path d="m64.8489,47.931l0,2.47459l1.35958,0l0,-0.571169c-0.388453,0,-0.776909,-0.19063,-0.776909,-0.57117,0,-0.38054,0.388454,-0.57117,0.776909,-0.57117l0,-0.571169L64.8489,48.121Z" fill="#fff39d" gorn="0.3.72" id="path436" stroke-width="0.192068"/>
   <path d="m64.8489,44.3343l0,2.47459l1.35958,0l0,-0.57117c-0.388453,0,-0.776909,-0.19063,-0.776909,-0.57117,0,-0.38054,0.388454,-0.571169,0.776909,-0.571169l0,-0.57117L64.8489,44.5242Z" fill="#fff39d" gorn="0.3.73" id="path438" stroke-width="0.192068"/>
   <path d="m64.8489,40.7375l0,2.47459l1.35958,0l0,-0.57117c-0.388453,0,-0.776909,-0.190629,-0.776909,-0.571169,0,-0.380541,0.388454,-0.57117,0.776909,-0.57117l0,-0.57117L64.8489,40.9274Z" fill="#fff39d" gorn="0.3.74" id="path440" stroke-width="0.192068"/>
   <path d="m64.8489,37.0688l0,2.47459l1.35958,0l0,-0.571169c-0.388453,0,-0.776909,-0.19063,-0.776909,-0.57117,0,-0.38054,0.388454,-0.57117,0.776909,-0.57117l0,-0.571169L64.8489,37.2587Z" fill="#fff39d" gorn="0.3.75" id="path442" stroke-width="0.192068"/>
   <path d="M64.8489,33.472L64.8489,35.9466l1.35958,0l0,-0.57117c-0.388453,0,-0.776909,-0.19063,-0.776909,-0.57117,0,-0.38054,0.388454,-0.571169,0.776909,-0.571169l0,-0.57117L64.8489,33.6619Z" fill="#fff39d" gorn="0.3.76" id="path444" stroke-width="0.192068"/>
   <path d="m64.8489,29.8752l0,2.47459l1.35958,0l0,-0.57117c-0.388453,0,-0.776909,-0.190629,-0.776909,-0.571169,0,-0.380541,0.388454,-0.57117,0.776909,-0.57117l0,-0.57117L64.8489,30.0651Z" fill="#fff39d" gorn="0.3.77" id="path446" stroke-width="0.192068"/>
   <path d="m64.8489,26.2784l0,2.47459l1.35958,0l0,-0.571169c-0.388453,0,-0.776909,-0.19063,-0.776909,-0.57117,0,-0.38054,0.388454,-0.57117,0.776909,-0.57117l0,-0.57117L64.8489,26.4683Z" fill="#fff39d" gorn="0.3.78" id="path448" stroke-width="0.192068"/>
   <path d="m64.8489,22.6096l0,2.47459l1.35958,0l0,-0.57117c-0.388453,0,-0.776909,-0.19063,-0.776909,-0.57117,0,-0.38054,0.388454,-0.571169,0.776909,-0.571169l0,-0.57117L64.8489,22.7996Z" fill="#fff39d" gorn="0.3.79" id="path450" stroke-width="0.192068"/>
   <path d="m51.253,47.3556c0.58268,0,0.971133,0.38054,0.971133,0.949552,0,0.569012,-0.388453,0.949552,-0.971133,0.949552,-0.582679,0,-0.971133,-0.38054,-0.971133,-0.949552,0,-0.569012,0.388454,-0.949552,0.971133,-0.949552z" fill="#e6e6e6" gorn="0.3.80" id="path454" stroke-width="0.192068"/>
   <path d="m50.2459,46.9959,-0.776909,-0.762523c-0.194227,-1.14378,-0.194227,-2.28036,0.388453,-3.23711,0.388454,-0.19063,0.971136,-0.19063,1.35959,-0.19063,3.10763,0,5.63257,2.47459,5.63257,5.51747,0,0.57117,0,0.94955,-0.194227,1.33081,-0.388453,0.190629,-0.582679,0.190629,-0.971136,0.38054l-0.776909,-0.38054c0.194227,-0.38054,0.194227,-0.94955,0.194227,-1.33081,0,-2.28036,-1.74804,-3.99963,-4.07876,-3.99963,-0.388454,0,-0.58268,0,-0.971136,0.190629l0,0.57117c0.388454,0,0.58268,-0.19063,0.971136,-0.19063,1.94226,0,3.49608,1.52504,3.49608,3.42414,0,0.762523,-0.194226,1.33081,-0.58268,1.9063,-0.388453,0,-0.776909,-0.190629,-0.971136,-0.190629l-0.58268,-0.57117c0.194226,-0.38054,0.388454,-0.762516,0.388454,-1.14378,0,-0.94955,-0.776909,-1.71207,-1.74804,-1.71207,-0.388454,0,-0.776909,0.19063,-0.971136,0.380541z" fill="#e6e6e6" gorn="0.3.81" id="path456" stroke-width="0.192068"/>
   <path d="M51.253,42.0324L51.253,41.0828c0.388454,-0.190629,0.58268,-0.571169,0.971136,-0.762516,3.69031,0.38054,6.6037,3.23711,6.99216,7.04251,-0.194226,0.38054,-0.388454,0.57117,-0.58268,0.94955l-0.971136,0l0,-0.190629c0,-3.42414,-2.9134,-6.27999,-6.40948,-6.27999l-0.194226,0z" fill="#e6e6e6" gorn="0.3.82" id="path458" stroke-width="0.192068"/>
   <path d="m54.1304,40.3059,0.194227,-0.38054l0.388453,0c2.9134,0,5.24412,2.28036,5.24412,5.13621l0,0.38054l-0.388453,0.190629c-0.776909,-2.47459,-2.9134,-4.3737,-5.43835,-5.33044z" fill="#e6e6e6" gorn="0.3.83" id="path460" stroke-width="0.192068"/>
   <path d="m50.6776,41.0972c-0.971134,0.949552,-1.74804,2.47459,-1.74804,3.99963,0,3.04288,2.52495,5.51747,5.63257,5.51747,1.55381,0,3.10763,-0.57117,4.07876,-1.71207l0.388454,0.38054c-1.16536,1.14378,-2.71917,1.9063,-4.46721,1.9063,-3.49608,0,-6.21525,-2.66162,-6.21525,-6.09296,0,-1.71207,0.776906,-3.23711,1.74804,-4.37369l0.388453,0.38054z" fill="#e6e6e6" gorn="0.3.84" id="path462" stroke-width="0.192068"/>
   <text fill="#e6e6e6" font-family="OCRA" font-size="3.384" font-weight="bold" gorn="0.3.85.0" id="text466" x="32.1194" y="37.1967">ESP-WROOM-32</text>
   <path d="m21.112,33.9036l0.776909,0c0.776909,-0.94955,1.94226,-1.71207,3.30185,-1.71207,1.35959,0,2.52495,0.57117,3.30185,1.71207l0.776909,0c0.971136,0,1.74804,0.762523,1.74804,1.71207l0,0.94955c0,0.94955,-0.776909,1.71207,-1.74804,1.71207l-0.776909,0c-0.776909,0.94955,-1.94226,1.71207,-3.30185,1.71207,-1.35958,0,-2.52495,-0.571169,-3.30185,-1.71207l-0.776909,0c-0.971136,0,-1.74804,-0.762516,-1.74804,-1.71207L19.3639,35.6157c0,-0.94955,0.776909,-1.71207,1.74804,-1.71207z" fill="#e6e6e6" gorn="0.3.89" id="path486" stroke-width="0.192068"/>
   <path d="m23.8455,38.0759l5.24412,0c0.776909,0,1.35959,-0.571169,1.35959,-1.33081l0,-0.94955c0,-0.762516,-0.58268,-1.33081,-1.35959,-1.33081l-2.33072,0c-0.776909,0,-1.35958,0.57117,-1.35958,1.33081l0,0.94955c0,0.762516,-0.58268,1.33081,-1.35959,1.33081z" fill="#999999" gorn="0.3.90" id="path488" stroke-width="0.192068"/>
   <g transform="matrix(2.69759, 0, 0, 2.64764, 3.26468, 2.46767)">
    <polygon fill="#e6e6e6" gorn="0.3.91.0" id="polygon490" points="8.784,12.672,9.288,12.672,9.288,12.888,8.784,12.888,8.784,13.176,8.496,13.176,8.496,12.312,9.288,12.312,9.288,12.528,8.784,12.528"/>
   </g>
   <path d="m28.7371,35.1984l0,-0.190629,0,-0.19063l0.194226,0,0.194227,0,0.194226,0,0.194226,0l0,0.19063,0,0.190629,0,0.19063,0,0.19063l-0.194226,0,-0.194226,0,-0.194227,0,-0.194226,0l0,-0.19063z" fill="#e6e6e6" gorn="0.3.92" id="path492" stroke-width="0.192068"/>
   <g transform="matrix(2.69759, 0, 0, 2.64764, 3.26468, 2.46767)">
    <polygon fill="#e6e6e6" gorn="0.3.93.0" id="polygon494" points="9.432,13.176,9.432,12.528,9.72,12.528,9.72,13.176"/>
   </g>
   <g transform="matrix(2.69759, 0, 0, 2.64764, 3.26468, 2.46767)">
    <polygon fill="#999999" gorn="0.3.94.0" id="polygon496" points="7.488,13.176,7.488,12.528,7.776,12.528,7.776,13.176"/>
   </g>
   <path d="m23.4858,35.1984l0,-0.190629,0,-0.19063l0.194226,0,0.194226,0,0.194226,0,0.194227,0l0,0.19063,0,0.190629,0,0.19063,0,0.19063l-0.194227,0,-0.194226,0,-0.194226,0,-0.194226,0l0,-0.19063z" fill="#999999" gorn="0.3.95" id="path498" stroke-width="0.192068"/>
   <path d="m21.6874,36.1336,-0.194226,1.14378l-0.58268,0l-0.58268,-2.28036l0.58268,0l0.194226,1.14378,0.388454,-1.33081l0.58268,0l0.388453,1.33081,0.194226,-1.14378l0.58268,0l-0.58268,2.28036l-0.582679,0l-0.194227,-1.14378z" fill="#999999" gorn="0.3.96" id="path500" stroke-width="0.192068"/>
   <text fill="#e6e6e6" font-family="OCRA" font-size="2.52" font-weight="bold" gorn="0.3.97.0" id="text502" stroke-width="0.182438" x="39.8866" y="56.0287">205 - 000519</text>
   <text fill="#e6e6e6" font-family="OCRA" font-size="2.88" font-weight="bold" gorn="0.3.98.0" id="text516" stroke-width="0.166777" x="17.4355" y="63.1946">FCC9D:2AC72-ESPWROOM32</text>
   <rect fill="none" gorn="0.3.104" height="4.18666" id="rect540" rx="0.58268" ry="0.57117" stroke="#e6e6e6" stroke-width="0.429457" width="6.21525" x="32.7655" y="53.2543"/>
   <text fill="#e6e6e6" font-family="OCRA" font-size="3.22975" font-weight="bold" gorn="0.3.105.0" id="text542" stroke-width="0.192059" x="34.6243" y="56.4025">R</text>
   <circle cx="21.5436" cy="67.7134" fill="#000000" gorn="0.3.106" id="circle544" r="1.52504" stroke-width="0.192068"/>
   <path d="m43.484,45.2694l-3.69031,0m4.07876,-3.99963c-2.33072,0,-4.07876,1.9063,-4.07876,3.99963m4.07876,3.99963c-2.33072,0,-4.07876,-1.9063,-4.07876,-3.99963" fill="none" gorn="0.3.107" id="path546" stroke="#e6e6e6" stroke-width="1.14378"/>
   <path d="m36.2904,41.313c-2.13649,0,-3.88453,1.71207,-4.07876,3.8054,0,2.47459,1.74804,4.37369,4.07876,4.37369" fill="none" gorn="0.3.108" id="path548" stroke="#e6e6e6" stroke-width="1.14378"/>
   <path d="m22.6945,55.5563l4.27298,0m-2.13649,1.52504L24.831,55.5563M22.6945,54.6067l4.27298,0m-6.21525,-1.33081,4.46721,-0.94955l0,1.33081l3.30185,-0.94955c-0.58268,-1.52504,-2.13649,-2.85585,-3.88454,-2.85585,-2.33072,0,-4.07876,1.71207,-4.07876,3.99963,0,2.28036,1.74804,3.99963,4.07876,3.99963,1.74804,0,3.10763,-0.94955,3.6903,-2.47459" fill="none" gorn="0.3.109" id="path550" stroke="#e6e6e6" stroke-width="0.504989"/>
   <path d="M57.2956,20.7394L57.2956,4.338L44.2752,4.338L44.2752,12.6825L37.2831,12.6825L37.2831,4.338L30.4852,4.338L30.4852,12.6825L23.2988,12.6825L23.2988,4.338L17.2778,4.338L17.2778,17.8619M50.8718,4.338L50.8718,20.7394" fill="none" gorn="0.3.110" id="path552" stroke="#4d4d4d" stroke-width="1.71926"/>
   <ellipse cx="50.8934" cy="20.1639" fill="#fff39d" gorn="0.3.111" id="circle554" rx="0.58268" ry="0.57117" stroke-width="0.192068"/>
   <ellipse cx="57.2956" cy="20.1639" fill="#fff39d" gorn="0.3.112" id="circle556" rx="0.58268" ry="0.57117" stroke-width="0.192068"/>
   <text fill="#e6e6e6" font-family="OCRA" font-size="2.88" font-weight="bold" gorn="0.3.113.0" id="text558" x="38.7084" y="19.9307">C</text>
   <ellipse cx="3.9108" cy="17.0945" fill="none" gorn="0.3.114" id="connector15pin" rx="2.08614" ry="2.08614" stroke="#cccccc" stroke-width="1.20133"/>
   <ellipse cx="4.02001" cy="24.2944" fill="none" gorn="0.3.115" id="connector16pin" rx="2.08614" ry="2.08614" stroke="#cccccc" stroke-width="1.20133"/>
   <ellipse cx="3.924" cy="31.4945" fill="none" gorn="0.3.116" id="connector17pin" rx="2.09934" ry="2.08614" stroke="#cccccc" stroke-width="1.20133"/>
   <ellipse cx="3.924" cy="38.6945" fill="none" gorn="0.3.117" id="connector18pin" rx="2.09934" ry="2.08614" stroke="#cccccc" stroke-width="1.20133"/>
   <ellipse cx="3.924" cy="45.8945" fill="none" gorn="0.3.118" id="connector19pin" rx="2.09934" ry="2.08614" stroke="#cccccc" stroke-width="1.20133"/>
   <ellipse cx="3.924" cy="53.0945" fill="none" gorn="0.3.119" id="connector20pin" rx="2.09934" ry="2.08614" stroke="#cccccc" stroke-width="1.20133"/>
   <ellipse cx="3.924" cy="60.2945" fill="none" gorn="0.3.120" id="connector21pin" rx="2.09934" ry="2.08614" stroke="#cccccc" stroke-width="1.20133"/>
   <ellipse cx="3.924" cy="67.4945" fill="none" gorn="0.3.121" id="connector22pin" rx="2.09934" ry="2.08614" stroke="#cccccc" stroke-width="1.20133"/>
   <ellipse cx="3.924" cy="74.6945" fill="none" gorn="0.3.122" id="connector23pin" rx="2.09934" ry="2.08614" stroke="#cccccc" stroke-width="1.20133"/>
   <ellipse cx="3.924" cy="81.8945" fill="none" gorn="0.3.123" id="connector24pin" rx="2.09934" ry="2.08614" stroke="#cccccc" stroke-width="1.20133"/>
   <ellipse cx="3.924" cy="89.0945" fill="none" gorn="0.3.124" id="connector25pin" rx="2.09934" ry="2.08614" stroke="#cccccc" stroke-width="1.20133"/>
   <ellipse cx="3.924" cy="96.2945" fill="none" gorn="0.3.125" id="connector26pin" rx="2.09934" ry="2.08614" stroke="#cccccc" stroke-width="1.20133"/>
   <ellipse cx="3.924" cy="103.495" fill="none" gorn="0.3.126" id="connector27pin" rx="2.09934" ry="2.08614" stroke="#cccccc" stroke-width="1.20133"/>
   <ellipse cx="3.924" cy="110.695" fill="none" gorn="0.3.127" id="connector28pin" rx="2.09934" ry="2.08614" stroke="#cccccc" stroke-width="1.20133"/>
   <ellipse cx="3.9108" cy="117.895" fill="none" gorn="0.3.128" id="connector29pin" rx="2.08614" ry="2.08614" stroke="#cccccc" stroke-width="1.20133"/>
   <ellipse cx="75.927" cy="117.895" fill="none" gorn="0.3.129" id="connector0pin" rx="2.08614" ry="2.08614" stroke="#cccccc" stroke-width="1.20133"/>
   <ellipse cx="75.9402" cy="110.695" fill="none" gorn="0.3.130" id="connector1pin" rx="2.09934" ry="2.08614" stroke="#cccccc" stroke-width="1.20133"/>
   <ellipse cx="75.918" cy="103.495" fill="none" gorn="0.3.131" id="connector2pin" rx="2.09333" ry="2.08614" stroke="#cccccc" stroke-width="1.20133"/>
   <ellipse cx="75.927" cy="96.2945" fill="none" gorn="0.3.132" id="connector3pin" rx="2.08614" ry="2.08614" stroke="#cccccc" stroke-width="1.20133"/>
   <ellipse cx="75.924" cy="89.0945" fill="none" gorn="0.3.133" id="connector4pin" rx="2.09934" ry="2.08614" stroke="#cccccc" stroke-width="1.20133"/>
   <ellipse cx="75.927" cy="81.8945" fill="none" gorn="0.3.134" id="connector5pin" rx="2.08614" ry="2.08614" stroke="#cccccc" stroke-width="1.20133"/>
   <ellipse cx="75.927" cy="74.6945" fill="none" gorn="0.3.135" id="connector6pin" rx="2.08614" ry="2.08614" stroke="#cccccc" stroke-width="1.20133"/>
   <ellipse cx="76.005" cy="67.4945" fill="none" gorn="0.3.136" id="connector7pin" rx="2.09934" ry="2.08614" stroke="#cccccc" stroke-width="1.20133"/>
   <ellipse cx="75.927" cy="60.2945" fill="none" gorn="0.3.137" id="connector8pin" rx="2.08614" ry="2.08614" stroke="#cccccc" stroke-width="1.20133"/>
   <ellipse cx="75.924" cy="53.0945" fill="none" gorn="0.3.138" id="connector9pin" rx="2.09934" ry="2.08614" stroke="#cccccc" stroke-width="1.20133"/>
   <ellipse cx="75.927" cy="45.8945" fill="none" gorn="0.3.139" id="connector10pin" rx="2.08614" ry="2.08614" stroke="#cccccc" stroke-width="1.20133"/>
   <ellipse cx="75.927" cy="38.6563" fill="none" gorn="0.3.140" id="connector11pin" rx="2.08614" ry="2.08614" stroke="#cccccc" stroke-width="1.20133"/>
   <ellipse cx="75.927" cy="31.4628" fill="none" gorn="0.3.141" id="connector12pin" rx="2.08614" ry="2.08614" stroke="#cccccc" stroke-width="1.20133"/>
   <ellipse cx="75.918" cy="24.2692" fill="none" gorn="0.3.142" id="connector13pin" rx="2.09333" ry="2.08614" stroke="#cccccc" stroke-width="1.20133"/>
   <ellipse cx="75.927" cy="17.0756" fill="none" gorn="0.3.143" id="connector14pin" rx="2.08614" ry="2.08614" stroke="#cccccc" stroke-width="1.20133"/>
   <circle cx="50.3899" cy="139.67" fill="none" gorn="0.3.144.0" id="Ellipse_x0020_" r="2.13649" stroke="#cccccc" stroke-width="1.20133"/>
   <circle cx="29.0247" cy="139.67" fill="none" gorn="0.3.145.0" id="Ellipse_x0020__0" r="2.13649" stroke="#cccccc" stroke-width="1.20133"/>
   <g transform="rotate(-90)">
    <rect fill="#666666" gorn="0.3.146.0" height="1.02149" id="rect623" stroke-width="0.251775" width="1.24449" x="-131.901" y="35.571"/>
   </g>
   <g transform="rotate(-90)">
    <rect fill="#999999" gorn="0.3.147.0" height="0" id="rect635" stroke-width="0.251775" width="0.999907" x="-131.757" y="32.6217"/>
   </g>
   <g transform="rotate(-90)">
    <rect fill="#666666" gorn="0.3.148.0" height="1.02149" id="rect649" stroke-width="0.251775" width="1.24449" x="-131.901" y="37.3694"/>
   </g>
   <g transform="rotate(-90)">
    <rect fill="#999999" gorn="0.3.149.0" height="0" id="rect661" stroke-width="0.251775" width="0.999907" x="-131.757" y="34.4201"/>
   </g>
   <g transform="rotate(-90)">
    <rect fill="#666666" gorn="0.3.150.0" height="1.02149" id="rect675" stroke-width="0.251775" width="1.24449" x="-131.901" y="39.2398"/>
   </g>
   <g transform="rotate(-90)">
    <rect fill="#999999" gorn="0.3.151.0" height="0" id="rect687" stroke-width="0.251775" width="0.999907" x="-131.757" y="36.2904"/>
   </g>
   <g transform="rotate(-90)">
    <rect fill="#666666" gorn="0.3.152.0" height="1.02149" id="rect701" stroke-width="0.251775" width="1.24449" x="-131.901" y="41.1101"/>
   </g>
   <g transform="rotate(-90)">
    <rect fill="#999999" gorn="0.3.153.0" height="0" id="rect713" stroke-width="0.251775" width="0.999907" x="-131.757" y="38.1607"/>
   </g>
   <g transform="rotate(-90)">
    <rect fill="#666666" gorn="0.3.154.0" height="1.02149" id="rect727" stroke-width="0.251775" width="1.24449" x="-131.901" y="42.9085"/>
   </g>
   <g transform="rotate(-90)">
    <rect fill="#999999" gorn="0.3.155.0" height="0" id="rect739" stroke-width="0.251775" width="0.999907" x="-131.757" y="39.9591"/>
   </g>
   <g transform="matrix(2.69759, 0, 0, 2.64764, 3.26468, 8.6033)">
    <polygon fill="#b3b3b3" gorn="0.3.156.0" id="polygon753" points="10.008,46.584,16.992,46.584,16.992,52.848,10.008,52.848"/>
   </g>
   <g transform="rotate(-90)">
    <rect fill="#999999" gorn="0.3.157.0" height="1.02149" id="rect755" stroke-width="0.251775" width="2.99253" x="-141.109" y="49.3827"/>
   </g>
   <g transform="rotate(-90)">
    <rect fill="#999999" gorn="0.3.158.0" height="1.02149" id="rect767" stroke-width="0.251775" width="2.99253" x="-141.109" y="29.0968"/>
   </g>
   <g transform="rotate(-90)">
    <rect fill="#cccccc" gorn="0.3.159.0" height="18.8472" id="rect779" stroke-width="0.251775" width="0.249617" x="-131.757" y="30.3197"/>
   </g>
   <g transform="rotate(-90)">
    <rect fill="#333333" gorn="0.3.160.0" height="10.4307" id="rect791" stroke-width="0.251775" width="15.1784" x="-147.008" y="34.5639"/>
   </g>
   <g transform="matrix(2.69759, 0, 0, 2.64764, 3.26468, 8.6033)">
    <polygon fill="#b3b3b3" gorn="0.3.161.0" id="polygon803" points="9.72,53.28,9.576,53.28,9.936,52.704,9.936,52.92"/>
   </g>
   <g transform="matrix(2.69759, 0, 0, 2.64764, 3.26468, 8.6033)">
    <polygon fill="#cccccc" gorn="0.3.162.0" id="polygon805" points="9.936,53.136,9.72,53.28,9.936,52.92"/>
   </g>
   <g transform="matrix(2.69759, 0, 0, 2.64764, 3.26468, 8.6033)">
    <polygon fill="#b3b3b3" gorn="0.3.163.0" id="polygon807" points="17.064,52.92,17.064,52.704,17.496,53.28,17.352,53.28"/>
   </g>
   <g transform="matrix(2.69759, 0, 0, 2.64764, 3.26468, 8.6033)">
    <polygon fill="#cccccc" gorn="0.3.164.0" id="polygon809" points="17.064,53.136,17.064,52.92,17.352,53.28"/>
   </g>
   <g transform="rotate(-90)">
    <rect fill="#f2f2f2" gorn="0.3.165.0" height="0.509305" id="rect811" stroke-width="0.251775" width="0.748132" x="-148.015" y="43.6998"/>
   </g>
   <g transform="rotate(-90)">
    <rect fill="#f2f2f2" gorn="0.3.166.0" height="0.509305" id="rect825" stroke-width="0.251775" width="0.748132" x="-148.015" y="41.6136"/>
   </g>
   <g transform="rotate(-90)">
    <rect fill="#f2f2f2" gorn="0.3.167.0" height="0.509305" id="rect839" stroke-width="0.251775" width="0.748132" x="-148.015" y="39.5275"/>
   </g>
   <g transform="rotate(-90)">
    <rect fill="#f2f2f2" gorn="0.3.168.0" height="0.509305" id="rect853" stroke-width="0.251775" width="0.748132" x="-148.015" y="37.3694"/>
   </g>
   <g transform="rotate(-90)">
    <rect fill="#f2f2f2" gorn="0.3.169.0" height="0.509305" id="rect867" stroke-width="0.251775" width="0.748132" x="-148.015" y="35.2833"/>
   </g>
   <g transform="rotate(-90)">
    <rect fill="#808080" gorn="0.3.170.0" height="0" id="rect881" stroke-width="0.251775" width="0.748132" x="-148.015" y="32.4059"/>
   </g>
   <g transform="rotate(-90)">
    <rect fill="#808080" gorn="0.3.171.0" height="0" id="rect895" stroke-width="0.251775" width="0.748132" x="-148.015" y="34.492"/>
   </g>
   <g transform="rotate(-90)">
    <rect fill="#808080" gorn="0.3.172.0" height="0" id="rect909" stroke-width="0.251775" width="0.748132" x="-148.015" y="36.5781"/>
   </g>
   <g transform="rotate(-90)">
    <rect fill="#808080" gorn="0.3.173.0" height="0" id="rect923" stroke-width="0.251775" width="0.748132" x="-148.015" y="38.6643"/>
   </g>
   <g transform="rotate(-90)">
    <rect fill="#808080" gorn="0.3.174.0" height="0" id="rect937" stroke-width="0.251775" width="0.748132" x="-148.015" y="40.7504"/>
   </g>
   <path d="m34.7078,148.087l0.58268,0l0,-0.380541l0.388453,0l0,0.380541l1.55381,0l0,-0.380541l0.388453,0l0,0.380541l1.55381,0l0,-0.380541l0.388454,0l0,0.380541l1.55381,0l0,-0.380541l0.388453,0l0,0.380541l1.55381,0l0,-0.380541l0.388453,0l0,0.380541l0.58268,0c0,0,0.194226,0,0.194226,-0.190627l0,-0.94955c0,0,0,-0.190634,-0.194226,-0.190634L33.9597,146.756c0,0,-0.194226,0,-0.194226,0.190634l0,0.94955c0,0,0,0.190627,0.194226,0.190627z" fill="#4d4d4d" gorn="0.3.175" id="path953" stroke-width="0.192068"/>
   <path d="m30.1039,132.333,0.194226,-0.571169l2.52495,0l-2.33072,0.190627c0,0.190627,0.194227,0.190627,0.194227,0.190627l-0.58268,0z" fill="#cccccc" gorn="0.3.176" id="path955" stroke-width="0.192068"/>
   <path d="m49.3108,132.333,-0.194226,-0.571169l-2.52495,0l2.33072,0.190627c0,0.190627,-0.194226,0.190627,-0.194226,0.190627l0.58268,0z" fill="#cccccc" gorn="0.3.177" id="path957" stroke-width="0.192068"/>
   <path d="m46.0017,131.757l0,1.52504l-1.55381,0l0,-1.52504l-0.388454,0l0,0.571169L35.7149,132.329l0,-0.571169l-0.582679,0l0,1.52504l-1.55381,0l0,-1.52504l-3.30185,0l0,16.761L49.4834,148.519L49.4834,131.757L46.1816,131.757Zm-11.0781,13.5239l0,0.762523l-1.55381,0l0,-0.949557c-0.388453,-0.190627,-0.776909,-0.762516,-0.776909,-1.33081,0,-0.571169,0.194226,-1.14378,0.776909,-1.33081l0,-4.37369l1.55381,0l0,4.37369c0.58268,0.190634,0.776909,0.762523,0.776909,1.33081,0,0.571176,-0.388453,1.14378,-0.776909,1.33081zm10.8623,0l0,0.762523l-1.55381,0l0,-0.949557c-0.388453,-0.190627,-0.776909,-0.762516,-0.776909,-1.33081,0,-0.571169,0.194226,-1.14378,0.776909,-1.33081l0,-4.37369l1.55381,0l0,4.37369c0.58268,0.190634,0.776909,0.762523,0.776909,1.33081,0,0.571176,-0.388453,1.14378,-0.776909,1.33081z" fill="#cccccc" gorn="0.3.178" id="path959" stroke-width="0.192068"/>
   <g transform="matrix(2.69759, 0, 0, 2.64764, 3.26468, 8.6033)">
    <polygon fill="#e6e6e6" gorn="0.3.179.0" id="polygon961" points="9.936,46.8,10.512,46.8,10.08,52.848,9.936,52.848"/>
   </g>
   <g transform="matrix(2.69759, 0, 0, 2.64764, 3.26468, 8.6033)">
    <polygon fill="#999999" gorn="0.3.180.0" id="polygon963" points="16.704,46.8,17.064,46.8,17.064,52.848,16.848,48.816"/>
   </g>
   <g transform="rotate(-90)">
    <rect fill="#cccccc" gorn="0.3.181.0" height="1.52504" id="rect965" stroke-width="0.251775" width="0.249617" x="-138.303" y="33.413"/>
   </g>
   <g transform="rotate(-90)">
    <rect fill="#cccccc" gorn="0.3.182.0" height="1.52504" id="rect977" stroke-width="0.251775" width="0.249617" x="-138.303" y="44.3472"/>
   </g>
   <g transform="rotate(-90)">
    <rect fill="#b3b3b3" gorn="0.3.183.0" height="17.3365" id="rect989" stroke-width="0.251775" width="0.748132" x="-148.159" y="31.0391"/>
   </g>
   <g transform="rotate(-90)">
    <rect fill="#cccccc" gorn="0.3.184.0" height="17.3365" id="rect1001" stroke-width="0.251775" width="0.249617" x="-148.374" y="31.0391"/>
   </g>
   <rect fill="#e6e6e6" gorn="0.3.185" height="1.33081" id="rect1016" stroke-width="0.192068" width="0.58268" x="42.333" y="109.817"/>
   <rect fill="#e6e6e6" gorn="0.3.186" height="1.33081" id="rect1018" stroke-width="0.192068" width="0.58268" x="40.9662" y="109.817"/>
   <rect fill="#e6e6e6" gorn="0.3.187" height="1.33081" id="rect1020" stroke-width="0.192068" width="0.58268" x="39.3836" y="109.817"/>
   <rect fill="#e6e6e6" gorn="0.3.188" height="1.33081" id="rect1022" stroke-width="0.192068" width="0.58268" x="38.0169" y="109.817"/>
   <rect fill="#e6e6e6" gorn="0.3.189" height="1.33081" id="rect1024" stroke-width="0.192068" width="0.58268" x="36.5062" y="109.817"/>
   <rect fill="#e6e6e6" gorn="0.3.190" height="1.33081" id="rect1026" stroke-width="0.192068" width="0.58268" x="35.1394" y="109.817"/>
   <rect fill="#e6e6e6" gorn="0.3.191" height="1.33081" id="rect1028" stroke-width="0.192068" width="0.58268" x="43.8437" y="109.817"/>
   <rect fill="#e6e6e6" gorn="0.3.192" height="1.33081" id="rect1032" stroke-width="0.192068" width="0.58268" x="42.333" y="125.427"/>
   <rect fill="#e6e6e6" gorn="0.3.193" height="1.33081" id="rect1034" stroke-width="0.192068" width="0.58268" x="40.9662" y="125.427"/>
   <rect fill="#e6e6e6" gorn="0.3.194" height="1.33081" id="rect1036" stroke-width="0.192068" width="0.58268" x="39.3836" y="125.427"/>
   <rect fill="#e6e6e6" gorn="0.3.195" height="1.33081" id="rect1038" stroke-width="0.192068" width="0.58268" x="38.0169" y="125.427"/>
   <rect fill="#e6e6e6" gorn="0.3.196" height="1.33081" id="rect1040" stroke-width="0.192068" width="0.58268" x="36.5062" y="125.427"/>
   <rect fill="#e6e6e6" gorn="0.3.197" height="1.33081" id="rect1042" stroke-width="0.192068" width="0.58268" x="35.1394" y="125.427"/>
   <rect fill="#e6e6e6" gorn="0.3.198" height="1.33081" id="rect1044" stroke-width="0.192068" width="0.58268" x="43.8437" y="125.427"/>
   <g transform="rotate(90)">
    <rect fill="#e6e6e6" gorn="0.3.199.0" height="1.51784" id="rect1048" stroke-width="0.179839" width="0.575486" x="120.895" y="-32.5497"/>
   </g>
   <g transform="rotate(90)">
    <rect fill="#e6e6e6" gorn="0.3.200.0" height="1.51784" id="rect1060" stroke-width="0.179839" width="0.575486" x="119.456" y="-32.5497"/>
   </g>
   <g transform="rotate(90)">
    <rect fill="#e6e6e6" gorn="0.3.201.0" height="1.51784" id="rect1072" stroke-width="0.179839" width="0.575486" x="118.018" y="-32.5497"/>
   </g>
   <g transform="rotate(90)">
    <rect fill="#e6e6e6" gorn="0.3.202.0" height="1.51784" id="rect1084" stroke-width="0.179839" width="0.575486" x="116.651" y="-32.5497"/>
   </g>
   <g transform="rotate(90)">
    <rect fill="#e6e6e6" gorn="0.3.203.0" height="1.51784" id="rect1096" stroke-width="0.179839" width="0.575486" x="115.212" y="-32.5497"/>
   </g>
   <g transform="rotate(90)">
    <rect fill="#e6e6e6" gorn="0.3.204.0" height="1.51784" id="rect1108" stroke-width="0.179839" width="0.575486" x="113.773" y="-32.5497"/>
   </g>
   <g transform="rotate(90)">
    <rect fill="#e6e6e6" gorn="0.3.205.0" height="1.51784" id="rect1120" stroke-width="0.179839" width="0.575486" x="122.262" y="-32.5497"/>
   </g>
   <g transform="rotate(90)">
    <rect fill="#e6e6e6" gorn="0.3.206.0" height="1.51784" id="rect1134" stroke-width="0.179839" width="0.575486" x="120.895" y="-48.4475"/>
   </g>
   <g transform="rotate(90)">
    <rect fill="#e6e6e6" gorn="0.3.207.0" height="1.51784" id="rect1146" stroke-width="0.179839" width="0.575486" x="119.456" y="-48.4475"/>
   </g>
   <g transform="rotate(90)">
    <rect fill="#e6e6e6" gorn="0.3.208.0" height="1.51784" id="rect1158" stroke-width="0.179839" width="0.575486" x="118.018" y="-48.4475"/>
   </g>
   <g transform="rotate(90)">
    <rect fill="#e6e6e6" gorn="0.3.209.0" height="1.51784" id="rect1170" stroke-width="0.179839" width="0.575486" x="116.651" y="-48.4475"/>
   </g>
   <g transform="rotate(90)">
    <rect fill="#e6e6e6" gorn="0.3.210.0" height="1.51784" id="rect1182" stroke-width="0.179839" width="0.575486" x="115.212" y="-48.4475"/>
   </g>
   <g transform="rotate(90)">
    <rect fill="#e6e6e6" gorn="0.3.211.0" height="1.51784" id="rect1194" stroke-width="0.179839" width="0.575486" x="113.773" y="-48.4475"/>
   </g>
   <g transform="rotate(90)">
    <rect fill="#e6e6e6" gorn="0.3.212.0" height="1.51784" id="rect1206" stroke-width="0.179839" width="0.575486" x="122.262" y="-48.4475"/>
   </g>
   <rect fill="#333333" gorn="0.3.213" height="14.0994" id="rect1220" stroke="#000000" stroke-width="0.217965" width="14.3872" x="32.6217" y="111.184"/>
   <ellipse cx="47.7282" cy="110.249" fill="#ffffff" gorn="0.3.214" id="circle1222" rx="0.776906" ry="0.762519" stroke-width="0.192068"/>
   <ellipse cx="44.0595" cy="114.061" fill="#1a1a1a" gorn="0.3.215" id="circle1224" rx="0.776906" ry="0.762519" stroke-width="0.192068"/>
   <g transform="matrix(0,-1,-1,0,0,0)">
    <rect fill="#303030" gorn="0.3.216.0" height="7.26551" id="rect1227" stroke-width="0.0791293" width="3.36659" x="-122.693" y="-62.475"/>
   </g>
   <g transform="matrix(2.69759, 0, 0, 2.64764, 3.26468, 8.6033)">
    <polygon fill="#3d3e3d" gorn="0.3.217.0" id="polygon1239" points="19.224,41.904,21.96,41.904,22.032,41.832,19.08,41.832"/>
   </g>
   <g transform="matrix(2.69759, 0, 0, 2.64764, 3.26468, 8.6033)">
    <polygon fill="#000000" gorn="0.3.218.0" id="polygon1241" points="19.08,43.272,19.224,43.272,21.96,43.272,22.032,43.272,21.96,43.2,19.224,43.2"/>
   </g>
   <g transform="matrix(2.69759, 0, 0, 2.64764, 3.26468, 8.6033)">
    <polygon fill="#1e1f1f" gorn="0.3.219.0" id="polygon1243" points="19.224,43.2,19.224,41.904,19.08,41.832,19.08,43.272"/>
   </g>
   <g transform="matrix(2.69759, 0, 0, 2.64764, 3.26468, 8.6033)">
    <polygon fill="#1e1f1f" gorn="0.3.220.0" id="polygon1245" points="22.032,41.832,21.96,41.904,21.96,43.2,22.032,43.272"/>
   </g>
   <g transform="matrix(0,-1,-1,0,0,0)">
    <rect fill="#bdbfc1" gorn="0.3.221.0" height="0.877616" id="rect1249" stroke-width="0.0877616" width="2.0142" x="-119.097" y="-61.8995"/>
   </g>
   <g transform="matrix(0,-1,-1,0,0,0)">
    <rect fill="#666766" gorn="0.3.222.0" height="0.877616" id="rect1261" stroke-width="0.0877616" width="0.576205" x="-118.305" y="-61.8995"/>
   </g>
   <g transform="rotate(90)">
    <rect fill="#bdbfc1" gorn="0.3.223.0" height="0.877616" id="rect1275" stroke-width="0.0877616" width="2.0142" x="122.981" y="-59.2379"/>
   </g>
   <g transform="rotate(90)">
    <rect fill="#666766" gorn="0.3.224.0" height="0.877616" id="rect1287" stroke-width="0.0877616" width="0.576205" x="123.772" y="-59.2379"/>
   </g>
   <g transform="matrix(0,-1,-1,0,0,0)">
    <rect fill="#bdbfc1" gorn="0.3.225.0" height="0.877616" id="rect1301" stroke-width="0.0877616" width="2.0142" x="-119.097" y="-56.3605"/>
   </g>
   <g transform="matrix(0,-1,-1,0,0,0)">
    <rect fill="#666766" gorn="0.3.226.0" height="0.877616" id="rect1313" stroke-width="0.0877616" width="0.576205" x="-118.305" y="-56.3605"/>
   </g>
   <g transform="matrix(0,-1,-1,0,0,0)">
    <rect fill="#303030" gorn="0.3.227.0" height="7.26551" id="rect1328" stroke-width="0.0791293" width="3.36659" x="-112.191" y="-62.475"/>
   </g>
   <g transform="matrix(2.69759, 0, 0, 2.64764, 3.26468, 8.6033)">
    <polygon fill="#3d3e3d" gorn="0.3.228.0" id="polygon1340" points="19.224,37.944,21.96,37.944,22.032,37.8,19.08,37.8"/>
   </g>
   <g transform="matrix(2.69759, 0, 0, 2.64764, 3.26468, 8.6033)">
    <polygon fill="#000000" gorn="0.3.229.0" id="polygon1342" points="19.08,39.312,19.224,39.312,21.96,39.312,22.032,39.312,21.96,39.168,19.224,39.168"/>
   </g>
   <g transform="matrix(2.69759, 0, 0, 2.64764, 3.26468, 8.6033)">
    <polygon fill="#1e1f1f" gorn="0.3.230.0" id="polygon1344" points="19.224,39.168,19.224,37.944,19.08,37.8,19.08,39.312"/>
   </g>
   <g transform="matrix(2.69759, 0, 0, 2.64764, 3.26468, 8.6033)">
    <polygon fill="#1e1f1f" gorn="0.3.231.0" id="polygon1346" points="22.032,37.8,21.96,37.944,21.96,39.168,22.032,39.312"/>
   </g>
   <g transform="matrix(0,-1,-1,0,0,0)">
    <rect fill="#bdbfc1" gorn="0.3.232.0" height="0.877616" id="rect1350" stroke-width="0.0877616" width="2.0142" x="-108.594" y="-61.8995"/>
   </g>
   <g transform="matrix(0,-1,-1,0,0,0)">
    <rect fill="#666766" gorn="0.3.233.0" height="0.877616" id="rect1362" stroke-width="0.0877616" width="0.576205" x="-107.731" y="-61.8995"/>
   </g>
   <g transform="rotate(90)">
    <rect fill="#bdbfc1" gorn="0.3.234.0" height="0.877616" id="rect1376" stroke-width="0.0877616" width="2.0142" x="112.407" y="-59.2379"/>
   </g>
   <g transform="rotate(90)">
    <rect fill="#666766" gorn="0.3.235.0" height="0.877616" id="rect1388" stroke-width="0.0877616" width="0.576205" x="113.27" y="-59.2379"/>
   </g>
   <g transform="matrix(0,-1,-1,0,0,0)">
    <rect fill="#bdbfc1" gorn="0.3.236.0" height="0.877616" id="rect1402" stroke-width="0.0877616" width="2.0142" x="-108.594" y="-56.3605"/>
   </g>
   <g transform="matrix(0,-1,-1,0,0,0)">
    <rect fill="#666766" gorn="0.3.237.0" height="0.877616" id="rect1414" stroke-width="0.0877616" width="0.576205" x="-107.731" y="-56.3605"/>
   </g>
   <rect fill="#f5b03b" gorn="0.3.238" height="9.35165" id="rect1429" stroke-width="0.192068" width="7.55326" x="30.4636" y="88.8836"/>
   <rect fill="#eb8a53" gorn="0.3.239" height="1.71207" id="rect1431" stroke-width="0.192068" width="7.55326" x="30.4636" y="96.3649"/>
   <rect fill="#cccccc" gorn="0.3.240" height="1.71207" id="rect1433" stroke-width="0.192068" width="6.40948" x="31.0391" y="98.2352"/>
   <rect fill="#cccccc" gorn="0.3.241" height="1.71207" id="rect1435" stroke-width="0.192068" width="6.40948" x="31.0391" y="87.0133"/>
   <rect fill="#cccccc" gorn="0.3.242" height="10.8623" id="rect1438" stroke-width="0.192068" width="8.34455" x="12.4724" y="131.326"/>
   <rect fill="#333333" gorn="0.3.243" height="1.52504" id="rect1440" stroke-width="0.192068" width="0.58268" x="16.0692" y="131.326"/>
   <rect fill="#333333" gorn="0.3.244" height="1.52504" id="rect1442" stroke-width="0.192068" width="0.58268" x="20.2415" y="131.326"/>
   <rect fill="#333333" gorn="0.3.245" height="1.52504" id="rect1444" stroke-width="0.192068" width="0.58268" x="16.0692" y="140.677"/>
   <rect fill="#333333" gorn="0.3.246" height="1.52504" id="rect1446" stroke-width="0.192068" width="0.58268" x="20.2415" y="140.677"/>
   <rect fill="#333333" gorn="0.3.247" height="0.57117" id="rect1448" stroke-width="0.192068" width="0.971133" x="14.6305" y="131.326"/>
   <rect fill="#333333" gorn="0.3.248" height="0.57117" id="rect1450" stroke-width="0.192068" width="0.971133" x="17.7238" y="131.326"/>
   <rect fill="#e6e6e6" gorn="0.3.249" height="1.9063" id="rect1452" stroke-width="0.192068" width="3.88453" x="14.7744" y="129.455"/>
   <rect fill="#e6e6e6" gorn="0.3.250" height="1.9063" id="rect1454" stroke-width="0.192068" width="3.88453" x="14.7744" y="142.188"/>
   <ellipse cx="16.5728" cy="136.865" fill="#333333" gorn="0.3.251" id="circle1456" rx="2.71917" ry="2.66162" stroke="#1a1a1a" stroke-width="0.217965"/>
   <path d="m14.1989,137.8c-0.194227,-0.380541,-0.194227,-0.571169,-0.194227,-0.94955,0,-0.949557,0.388454,-1.71207,1.16536,-2.09333" fill="none" gorn="0.3.252" id="path1458" stroke="#ffffff" stroke-width="0.217965"/>
   <rect fill="#333333" gorn="0.3.253" height="0.57117" id="rect1460" stroke-width="0.192068" width="0.971133" x="14.6305" y="141.828"/>
   <rect fill="#333333" gorn="0.3.254" height="0.57117" id="rect1462" stroke-width="0.192068" width="0.971133" x="17.7238" y="141.828"/>
   <rect fill="#cccccc" gorn="0.3.255" height="10.8623" id="rect1465" stroke-width="0.192068" width="8.34455" x="59.3818" y="131.326"/>
   <rect fill="#333333" gorn="0.3.256" height="1.52504" id="rect1467" stroke-width="0.192068" width="0.583399" x="59.3818" y="131.326"/>
   <rect fill="#333333" gorn="0.3.257" height="1.52504" id="rect1469" stroke-width="0.192068" width="0.583399" x="63.5541" y="131.326"/>
   <rect fill="#333333" gorn="0.3.258" height="1.52504" id="rect1471" stroke-width="0.192068" width="0.583399" x="59.3818" y="140.677"/>
   <rect fill="#333333" gorn="0.3.259" height="1.52504" id="rect1473" stroke-width="0.192068" width="0.583399" x="63.5541" y="140.677"/>
   <rect fill="#333333" gorn="0.3.260" height="0.57117" id="rect1475" stroke-width="0.192068" width="0.971133" x="61.324" y="131.326"/>
   <rect fill="#333333" gorn="0.3.261" height="0.57117" id="rect1477" stroke-width="0.192068" width="0.971133" x="64.6331" y="131.326"/>
   <rect fill="#e6e6e6" gorn="0.3.262" height="1.9063" id="rect1479" stroke-width="0.192068" width="3.88453" x="61.5399" y="129.455"/>
   <rect fill="#e6e6e6" gorn="0.3.263" height="1.9063" id="rect1481" stroke-width="0.192068" width="3.88453" x="61.5399" y="142.188"/>
   <ellipse cx="63.4821" cy="136.865" fill="#333333" gorn="0.3.264" id="circle1483" rx="2.71917" ry="2.66162" stroke="#1a1a1a" stroke-width="0.217965"/>
   <path d="m60.8924,137.8c-0.194226,-0.380541,-0.194226,-0.571169,-0.194226,-0.94955,0,-0.949557,0.388453,-1.71207,1.16536,-2.09333" fill="none" gorn="0.3.265" id="path1485" stroke="#ffffff" stroke-width="0.217965"/>
   <rect fill="#333333" gorn="0.3.266" height="0.57117" id="rect1487" stroke-width="0.192068" width="0.971133" x="61.324" y="141.828"/>
   <rect fill="#333333" gorn="0.3.267" height="0.57117" id="rect1489" stroke-width="0.192068" width="0.971133" x="64.6331" y="141.828"/>
   <rect fill="#303030" gorn="0.3.268" height="17.1207" id="rect1492" stroke-width="0.192068" width="8.12874" x="46.5772" y="86.7975"/>
   <g transform="matrix(2.69759, 0, 0, 2.64764, 3.26468, 8.6033)">
    <polygon fill="#3d3e3d" gorn="0.3.269.0" id="polygon1494" points="16.056,29.592,16.056,36.072,15.84,36.36,15.84,29.376"/>
   </g>
   <g transform="matrix(2.69759, 0, 0, 2.64764, 3.26468, 8.6033)">
    <polygon fill="#000000" gorn="0.3.270.0" id="polygon1496" points="19.296,29.376,19.296,29.592,19.296,36.072,19.296,36.36,19.08,36.072,19.08,29.592"/>
   </g>
   <g transform="matrix(2.69759, 0, 0, 2.64764, 3.26468, 8.6033)">
    <polygon fill="#1e1f1f" gorn="0.3.271.0" id="polygon1498" points="19.08,29.592,16.056,29.592,15.84,29.376,19.296,29.376"/>
   </g>
   <g transform="matrix(2.69759, 0, 0, 2.64764, 3.26468, 8.6033)">
    <polygon fill="#1e1f1f" gorn="0.3.272.0" id="polygon1500" points="15.84,36.36,16.056,36.072,19.08,36.072,19.296,36.36"/>
   </g>
   <rect fill="#bdbfc1" gorn="0.3.273" height="2.09333" id="rect1504" stroke-width="0.192068" width="4.07876" x="41.9014" y="100.537"/>
   <rect fill="#666766" gorn="0.3.274" height="2.09333" id="rect1506" stroke-width="0.192068" width="1.16536" x="43.1243" y="100.537"/>
   <rect fill="#bdbfc1" gorn="0.3.275" height="8.56035" id="rect1510" stroke-width="0.192068" width="5.04989" x="55.3534" y="90.8259"/>
   <rect fill="#666766" gorn="0.3.276" height="8.56035" id="rect1512" stroke-width="0.192068" width="1.16536" x="57.8711" y="90.8259"/>
   <rect fill="#bdbfc1" gorn="0.3.277" height="2.09333" id="rect1516" stroke-width="0.192068" width="4.07876" x="41.9014" y="94.2068"/>
   <rect fill="#666766" gorn="0.3.278" height="2.09333" id="rect1518" stroke-width="0.192068" width="1.16536" x="43.1243" y="94.2068"/>
   <rect fill="#bdbfc1" gorn="0.3.279" height="2.09333" id="rect1522" stroke-width="0.192068" width="4.07876" x="41.9014" y="87.5888"/>
   <rect fill="#666766" gorn="0.3.280" height="2.09333" id="rect1524" stroke-width="0.192068" width="1.16536" x="43.1243" y="87.5888"/>
   <line fill="none" gorn="0.3.281" id="line1528" stroke="#b3b3b3" stroke-width="0.228756" x1="58.015" x2="58.015" y1="99.3862" y2="90.8259"/>
   <line fill="none" gorn="0.3.282" id="line1530" stroke="#b3b3b3" stroke-width="0.228756" x1="44.0595" x2="44.0595" y1="102.623" y2="100.537"/>
   <line fill="none" gorn="0.3.283" id="line1532" stroke="#b3b3b3" stroke-width="0.228756" x1="44.0595" x2="44.0595" y1="96.3649" y2="94.2068"/>
   <line fill="none" gorn="0.3.284" id="line1534" stroke="#b3b3b3" stroke-width="0.228756" x1="44.0595" x2="44.0595" y1="89.8907" y2="87.5888"/>
   <line fill="none" gorn="0.3.285" id="line1536" stroke="#333333" stroke-width="0.228756" x1="58.6624" x2="58.6624" y1="99.3862" y2="90.8259"/>
   <line fill="none" gorn="0.3.286" id="line1538" stroke="#333333" stroke-width="0.228756" x1="43.484" x2="43.484" y1="102.623" y2="100.537"/>
   <line fill="none" gorn="0.3.287" id="line1540" stroke="#333333" stroke-width="0.228756" x1="43.484" x2="43.484" y1="96.3649" y2="94.2068"/>
   <line fill="none" gorn="0.3.288" id="line1542" stroke="#333333" stroke-width="0.228756" x1="43.484" x2="43.484" y1="89.8907" y2="87.5888"/>
   <line fill="none" gorn="0.3.289" id="_0.1.5.0.0.0.0.0.0" stroke-width="0.192068" x1="20.7523" x2="20.7523" y1="110.968" y2="106.58"/>
   <g transform="rotate(90)">
    <rect fill="#f2f2f2" gorn="0.3.290.0" height="2.39546" id="_0.1.5.0.0.0.0.0.1.0" stroke-width="0.118694" width="4.58231" x="106.508" y="-20.6803"/>
   </g>
   <path d="m20.7523,108.163c0,0,-0.388453,-0.380541,-0.194226,-0.571169l0,-0.380541l0.194226,0z" fill="#22b573" fill-opacity="0.70200004" gorn="0.3.291" id="_0.1.5.0.0.0.0.0.2" stroke-width="0.192068"/>
   <g transform="rotate(90)">
    <rect fill="#ffffff" gorn="0.3.292.0" height="0.599225" id="_0.1.5.0.0.0.0.0.3.0.0" stroke-width="0.118694" width="0.46974" x="108.522" y="-19.8171"/>
   </g>
   <g transform="rotate(90)">
    <rect fill="#b3b3b3" gorn="0.3.293.0" height="0" id="_0.1.5.0.0.0.0.0.3.1.0" stroke-width="0.118694" width="0.46974" x="108.522" y="-16.8677"/>
   </g>
   <g transform="matrix(2.69759, 0, 0, 2.64764, 3.26468, 8.6033)">
    <polygon fill="#d1c690" gorn="0.3.294.0" id="_0.1.5.0.0.0.0.0.4.0" points="6.336,37.512,6.408,37.296,6.192,37.296,6.264,37.512"/>
   </g>
   <path d="m20.3926,107.731c0,0.190627,0,0.190627,-0.194226,0.380534,0,0.190634,-0.58268,0.380541,-0.388454,0.571176,0,-0.190634,0.388454,-0.380541,0.388454,-0.571176,0,0,0,-0.190627,0.194226,-0.380534z" fill="#d1c690" gorn="0.3.295" id="_0.1.5.0.0.0.0.0.4.1.0" stroke-width="0.192068"/>
   <g transform="matrix(2.69759, 0, 0, 2.64764, 3.26468, 8.6033)">
    <polygon fill="#d1c690" gorn="0.3.296.0" id="_0.1.5.0.0.0.0.0.4.2" points="5.688,38.304,5.688,38.52,5.832,38.52,5.832,38.304"/>
   </g>
   <path d="m19.6013,108.882c-0.194226,0,-0.776906,0.762516,-0.776906,1.14378,0,-0.380541,0.388454,-1.14378,0.776906,-1.14378z" fill="#d1c690" gorn="0.3.297" id="_0.1.5.0.0.0.0.0.4.3.0" stroke-width="0.192068"/>
   <path d="m19.6013,108.522c0,0,0,0.190627,0.194226,0.190627l0,-0.190627z" fill="#d1c690" gorn="0.3.298" id="_0.1.5.0.0.0.0.0.4.4" stroke-width="0.192068"/>
   <path d="m19.3855,108.882c0,0,0.194226,-0.190627,0.194226,0l0,0.190627z" fill="#d1c690" gorn="0.3.299" id="_0.1.5.0.0.0.0.0.4.5" stroke-width="0.192068"/>
   <path d="m19.7452,108.522c0,-0.190634,0.388453,-0.380541,0.388453,-0.571176,0,0,0,-0.190627,0.194226,-0.380534,0,0.190627,0,0.190627,-0.194226,0.380534,0,0.190634,-0.58268,0.380541,-0.388453,0.571176z" fill="#9d956c" gorn="0.3.300" id="_0.1.5.0.0.0.0.0.4.6" stroke-width="0.192068"/>
   <g transform="matrix(2.69759, 0, 0, 2.64764, 3.26468, 8.6033)">
    <polygon fill="#9d956c" gorn="0.3.301.0" id="_0.1.5.0.0.0.0.0.4.7" points="5.832,38.52,5.832,38.304"/>
   </g>
   <path d="m19.6013,108.882c-0.194226,0,-0.776906,0.571169,-0.776906,1.14378,0,-0.571169,0.58268,-1.14378,0.776906,-1.14378z" fill="#9d956c" gorn="0.3.302" id="_0.1.5.0.0.0.0.0.4.8" stroke-width="0.192068"/>
   <path d="m19.7452,108.738l0,-0.190634z" fill="#9d956c" gorn="0.3.303" id="_0.1.5.0.0.0.0.0.4.9" stroke-width="0.192068"/>
   <path d="m19.6013,108.882l0,-0.190627z" fill="#9d956c" gorn="0.3.304" id="_0.1.5.0.0.0.0.0.4.10" stroke-width="0.192068"/>
   <g transform="matrix(2.69759, 0, 0, 2.64764, 3.26468, 8.6033)">
    <polygon enable-background="new    " fill="#ffffff" fill-opacity="0.50199998" gorn="0.3.305.0" id="_0.1.5.0.0.0.0.0.5.0" points="5.544,37.44,5.544,38.376,5.616,38.376,5.616,37.44"/>
   </g>
   <g transform="matrix(2.69759, 0, 0, 2.64764, 3.26468, 8.6033)">
    <polygon enable-background="new    " fill="#f2f2f2" fill-opacity="0.50199998" gorn="0.3.306.0" id="_0.1.5.0.0.0.0.0.6" points="5.544,38.52,6.48,38.52,6.48,37.296,5.544,37.296"/>
   </g>
   <path d="m18.5942,110.393l-0.194226,0,-0.194226,0l0,-3.04288,0,0,0,2.66162c0,0.190627,0,0.380541,0.194226,0.380541l0.194226,0c0.194227,0,0.194227,0,0,0z" enable-background="new    " fill="#ffffff" fill-opacity="0.54900004" gorn="0.3.307" id="_0.1.5.0.0.0.0.0.7" stroke-width="0.192068"/>
   <path d="m20.5365,107.155l0,3.04288,0,0,0,-2.28037z" enable-background="new    " fill="#000000" fill-opacity="0.03140001" gorn="0.3.308" id="_0.1.5.0.0.0.0.0.8" stroke-width="0.192068"/>
   <path d="m20.7523,110.968l0,-0.380541l-0.388453,0c0,0,-0.194226,0,-0.194226,-0.190627l-1.94226,0l0,0.571169l2.33072,0z" fill="#d1c690" gorn="0.3.309" id="_0.1.5.0.0.0.0.0.9" stroke-width="0.192068"/>
   <g transform="matrix(2.69759, 0, 0, 2.64764, 3.26468, 8.6033)">
    <polygon enable-background="new    " fill="#ffffff" fill-opacity="0.50199998" gorn="0.3.310.0" id="_0.1.5.0.0.0.0.0.10.0" points="5.544,38.52,5.544,38.736,5.616,38.736,5.616,38.52"/>
   </g>
   <path d="m20.7523,106.436l-2.33072,0l0,0.571169l2.13649,0c0,0,0,-0.190627,0.194226,-0.190627l0,-0.571169z" fill="#d1c690" gorn="0.3.311" id="_0.1.5.0.0.0.0.0.11" stroke-width="0.192068"/>
   <g transform="matrix(2.69759, 0, 0, 2.64764, 3.26468, 8.6033)">
    <polygon enable-background="new    " fill="#ffffff" fill-opacity="0.50199998" gorn="0.3.312.0" id="_0.1.5.0.0.0.0.0.12.0" points="5.544,37.008,5.544,37.296,5.616,37.296,5.616,37.008"/>
   </g>
   <line fill="none" gorn="0.3.313" id="_0.1.5.0.0.0.0.0.0_2" stroke-width="0.192068" x1="27.9458" x2="27.9458" y1="110.968" y2="106.58"/>
   <g transform="rotate(90)">
    <rect fill="#f2f2f2" gorn="0.3.314.0" height="2.39546" id="_0.1.5.0.0.0.0.0.1.0_3" stroke-width="0.118694" width="4.58231" x="106.508" y="-27.9458"/>
   </g>
   <path d="m27.9459,108.163c0,0,-0.388453,-0.380541,-0.194226,-0.571169l0,-0.380541l0.194226,0z" fill="#22b573" fill-opacity="0.70200004" gorn="0.3.315" id="_0.1.5.0.0.0.0.0.2_4" stroke-width="0.192068"/>
   <g transform="rotate(90)">
    <rect fill="#ffffff" gorn="0.3.316.0" height="0.599225" id="_0.1.5.0.0.0.0.0.3.0.0_5" stroke-width="0.118694" width="0.46974" x="108.522" y="-27.0107"/>
   </g>
   <g transform="rotate(90)">
    <rect fill="#b3b3b3" gorn="0.3.317.0" height="0" id="_0.1.5.0.0.0.0.0.3.1.0_6" stroke-width="0.118694" width="0.46974" x="108.522" y="-24.1332"/>
   </g>
   <g transform="matrix(2.69759, 0, 0, 2.64764, 3.26468, 8.6033)">
    <polygon fill="#d1c690" gorn="0.3.318.0" id="_0.1.5.0.0.0.0.0.4.0_7" points="9.072,37.512,9.072,37.296,8.928,37.296,8.928,37.512"/>
   </g>
   <path d="m27.5142,107.731c0,0.190627,0,0.190627,-0.194226,0.380534,0,0.190634,-0.58268,0.380541,-0.388454,0.571176,0,-0.190634,0.388454,-0.380541,0.388454,-0.571176,0,0,0,-0.190627,0.194226,-0.380534z" fill="#d1c690" gorn="0.3.319" id="_0.1.5.0.0.0.0.0.4.1.0_8" stroke-width="0.192068"/>
   <g transform="matrix(2.69759, 0, 0, 2.64764, 3.26468, 8.6033)">
    <polygon fill="#d1c690" gorn="0.3.320.0" id="_0.1.5.0.0.0.0.0.4.2_9" points="8.352,38.304,8.352,38.52,8.496,38.52,8.496,38.304"/>
   </g>
   <path d="m26.7949,108.882c-0.194226,0,-0.776906,0.762516,-0.776906,1.14378,0,-0.380541,0.388453,-1.14378,0.776906,-1.14378z" fill="#d1c690" gorn="0.3.321" id="_0.1.5.0.0.0.0.0.4.3.0_10" stroke-width="0.192068"/>
   <path d="m26.7949,108.522c0,0,0,0.190627,0.194226,0.190627l0,-0.190627z" fill="#d1c690" gorn="0.3.322" id="_0.1.5.0.0.0.0.0.4.4_11" stroke-width="0.192068"/>
   <path d="m26.5791,108.882c0,0,0.194227,-0.190627,0.194227,0l0,0.190627z" fill="#d1c690" gorn="0.3.323" id="_0.1.5.0.0.0.0.0.4.5_12" stroke-width="0.192068"/>
   <path d="m27.1546,108.522c0,-0.190634,0.388453,-0.380541,0.388453,-0.571176,0,0,0,-0.190627,0.194227,-0.380534,0,0.190627,0,0.190627,-0.194227,0.380534,0,0.190634,-0.582679,0.380541,-0.388453,0.571176z" fill="#9d956c" gorn="0.3.324" id="_0.1.5.0.0.0.0.0.4.6_13" stroke-width="0.192068"/>
   <g transform="matrix(2.69759, 0, 0, 2.64764, 3.26468, 8.6033)">
    <polygon fill="#9d956c" gorn="0.3.325.0" id="_0.1.5.0.0.0.0.0.4.7_14" points="8.496,38.304,8.568,38.52,8.496,38.52"/>
   </g>
   <path d="m26.7949,108.882c-0.194226,0,-0.776906,0.571169,-0.776906,1.14378,0,-0.571169,0.58268,-1.14378,0.776906,-1.14378z" fill="#9d956c" gorn="0.3.326" id="_0.1.5.0.0.0.0.0.4.8_15" stroke-width="0.192068"/>
   <path d="m27.1546,108.738l0,-0.190634z" fill="#9d956c" gorn="0.3.327" id="_0.1.5.0.0.0.0.0.4.9_16" stroke-width="0.192068"/>
   <path d="m26.9387,108.882l0,-0.190627z" fill="#9d956c" gorn="0.3.328" id="_0.1.5.0.0.0.0.0.4.10_17" stroke-width="0.192068"/>
   <g transform="matrix(2.69759, 0, 0, 2.64764, 3.26468, 8.6033)">
    <polygon enable-background="new    " fill="#ffffff" fill-opacity="0.50199998" gorn="0.3.329.0" id="_0.1.5.0.0.0.0.0.5.0_18" points="8.28,38.376,8.28,37.44"/>
   </g>
   <g transform="matrix(2.69759, 0, 0, 2.64764, 3.26468, 8.6033)">
    <polygon enable-background="new    " fill="#f2f2f2" fill-opacity="0.50199998" gorn="0.3.330.0" id="_0.1.5.0.0.0.0.0.6_19" points="8.28,38.52,9.144,38.52,9.144,37.296,8.28,37.296"/>
   </g>
   <path d="m26.0036,110.393l-0.194227,0,-0.194226,0l0,-3.04288,0,0,0,2.66162c0,0.190627,0,0.380541,0.194226,0.380541l0.194227,0c0.194226,0,0.194226,0,0,0z" enable-background="new    " fill="#ffffff" fill-opacity="0.54900004" gorn="0.3.331" id="_0.1.5.0.0.0.0.0.7_20" stroke-width="0.192068"/>
   <path d="m27.7301,107.155l0,3.04288,0,0,0,-2.28037z" enable-background="new    " fill="#000000" fill-opacity="0.03140001" gorn="0.3.332" id="_0.1.5.0.0.0.0.0.8_21" stroke-width="0.192068"/>
   <path d="m27.9459,110.968l0,-0.380541l-0.388453,0c0,0,-0.194227,0,-0.194227,-0.190627l-1.94226,0l0,0.571169l2.33072,0z" fill="#d1c690" gorn="0.3.333" id="_0.1.5.0.0.0.0.0.9_22" stroke-width="0.192068"/>
   <g transform="matrix(2.69759, 0, 0, 2.64764, 3.26468, 8.6033)">
    <polygon enable-background="new    " fill="#ffffff" fill-opacity="0.50199998" gorn="0.3.334.0" id="_0.1.5.0.0.0.0.0.10.0_23" points="8.28,38.736,8.28,38.52"/>
   </g>
   <path d="m27.9459,106.436l-2.33072,0l0,0.571169l2.13649,0c0,0,0,-0.190627,0.194226,-0.190627l0,-0.571169z" fill="#d1c690" gorn="0.3.335" id="_0.1.5.0.0.0.0.0.11_24" stroke-width="0.192068"/>
   <g transform="matrix(2.69759, 0, 0, 2.64764, 3.26468, 8.6033)">
    <polygon enable-background="new    " fill="#ffffff" fill-opacity="0.50199998" gorn="0.3.336.0" id="_0.1.5.0.0.0.0.0.12.0_25" points="8.28,37.296,8.28,37.008"/>
   </g>
   <rect fill="#c6c6c5" gorn="0.3.337" height="1.52504" id="rect1655" stroke-width="0.192068" width="2.9134" x="51.0372" y="128.88"/>
   <rect fill="#020202" gorn="0.3.338" height="1.52504" id="rect1657" stroke-width="0.192068" width="1.74804" x="51.6127" y="128.88"/>
   <g transform="rotate(-90)">
    <rect fill="#c6c6c5" gorn="0.3.339.0" height="1.47468" id="rect1660" stroke-width="0.128765" width="2.84146" x="-97.3001" y="26.1475"/>
   </g>
   <g transform="rotate(-90)">
    <rect fill="#b7a283" gorn="0.3.340.0" height="1.47468" id="rect1672" stroke-width="0.10071" width="1.72646" x="-96.7246" y="26.1475"/>
   </g>
   <rect fill="#c6c6c5" gorn="0.3.341" height="1.52504" id="rect1685" stroke-width="0.192068" width="2.9134" x="51.0372" y="126.218"/>
   <rect fill="#020202" gorn="0.3.342" height="1.52504" id="rect1687" stroke-width="0.192068" width="1.74804" x="51.6127" y="126.218"/>
   <rect fill="#c6c6c5" gorn="0.3.343" height="1.52504" id="rect1690" stroke-width="0.192068" width="2.9134" x="49.6704" y="106.22"/>
   <rect fill="#020202" gorn="0.3.344" height="1.52504" id="rect1692" stroke-width="0.192068" width="1.74804" x="50.2459" y="106.22"/>
   <rect fill="#c6c6c5" gorn="0.3.345" height="1.52504" id="rect1695" stroke-width="0.192068" width="2.9134" x="30.6794" y="103.774"/>
   <rect fill="#020202" gorn="0.3.346" height="1.52504" id="rect1697" stroke-width="0.192068" width="1.74804" x="31.2549" y="103.774"/>
   <rect fill="#c6c6c5" gorn="0.3.347" height="1.52504" id="rect1700" stroke-width="0.192068" width="2.9134" x="24.6368" y="121.039"/>
   <rect fill="#020202" gorn="0.3.348" height="1.52504" id="rect1702" stroke-width="0.192068" width="1.74804" x="25.2123" y="121.039"/>
   <g transform="rotate(-90)">
    <rect fill="#c6c6c5" gorn="0.3.349.0" height="1.47468" id="rect1705" stroke-width="0.128765" width="2.84146" x="-124.204" y="51.1811"/>
   </g>
   <g transform="rotate(-90)">
    <rect fill="#020202" gorn="0.3.350.0" height="1.47468" id="rect1717" stroke-width="0.10071" width="1.72646" x="-123.629" y="51.1811"/>
   </g>
   <g transform="rotate(-90)">
    <rect fill="#c6c6c5" gorn="0.3.351.0" height="1.47468" id="rect1730" stroke-width="0.128765" width="2.84146" x="-118.665" y="51.1811"/>
   </g>
   <g transform="rotate(-90)">
    <rect fill="#020202" gorn="0.3.352.0" height="1.47468" id="rect1742" stroke-width="0.10071" width="1.72646" x="-118.09" y="51.1811"/>
   </g>
   <g transform="rotate(-90)">
    <rect fill="#c6c6c5" gorn="0.3.353.0" height="1.47468" id="rect1755" stroke-width="0.128765" width="2.84146" x="-112.91" y="51.1811"/>
   </g>
   <g transform="rotate(-90)">
    <rect fill="#020202" gorn="0.3.354.0" height="1.47468" id="rect1767" stroke-width="0.10071" width="1.72646" x="-112.407" y="51.1811"/>
   </g>
   <g transform="rotate(-90)">
    <rect fill="#c6c6c5" gorn="0.3.355.0" height="1.47468" id="rect1780" stroke-width="0.128765" width="2.84146" x="-118.953" y="24.0613"/>
   </g>
   <g transform="rotate(-90)">
    <rect fill="#b7a283" gorn="0.3.356.0" height="1.47468" id="rect1792" stroke-width="0.10071" width="1.72646" x="-118.377" y="24.0613"/>
   </g>
   <g transform="rotate(-90)">
    <rect fill="#c6c6c5" gorn="0.3.357.0" height="1.17975" id="rect1805" stroke-width="0.103588" width="2.28036" x="-118.233" y="27.4423"/>
   </g>
   <g transform="rotate(-90)">
    <rect fill="#b7a283" gorn="0.3.358.0" height="1.17975" id="rect1817" stroke-width="0.0805681" width="1.38836" x="-117.802" y="27.4423"/>
   </g>
   <rect fill="#c6c6c5" gorn="0.3.359" height="1.14378" id="rect1830" stroke-width="0.192068" width="2.33072" x="30.8233" y="106.58"/>
   <rect fill="#b7a283" gorn="0.3.360" height="1.14378" id="rect1832" stroke-width="0.192068" width="1.35959" x="31.2549" y="106.58"/>
   <g transform="rotate(-90)">
    <rect fill="#c6c6c5" gorn="0.3.361.0" height="3.56801" id="rect1835" stroke-width="0.27983" width="5.53186" x="-100.825" y="20.5365"/>
   </g>
   <g transform="rotate(-90)">
    <rect fill="#b7a283" gorn="0.3.362.0" height="3.56801" id="rect1847" stroke-width="0.217965" width="3.3594" x="-99.674" y="20.5365"/>
   </g>
   <g transform="rotate(-90)">
    <rect fill="#c6c6c5" gorn="0.3.363.0" height="1.17975" id="rect1860" stroke-width="0.103588" width="2.28036" x="-111.759" y="22.4787"/>
   </g>
   <g transform="rotate(-90)">
    <rect fill="#020202" gorn="0.3.364.0" height="1.17975" id="rect1872" stroke-width="0.0805681" width="1.38836" x="-111.328" y="22.4787"/>
   </g>
   <rect fill="#1a1a1a" gorn="0.3.365" height="4.56792" id="rect1885" stroke-width="0.192068" width="3.10763" x="18.0187" y="116.723"/>
   <rect fill="#cccccc" gorn="0.3.366" height="1.52504" id="rect1887" stroke-width="0.192068" width="0.971133" x="19.1697" y="115.14"/>
   <rect fill="#cccccc" gorn="0.3.367" height="1.52504" id="rect1889" stroke-width="0.192068" width="0.971133" x="19.1697" y="121.255"/>
   <g transform="rotate(-90)">
    <text fill="#ffffff" font-family="OCRA" font-size="2.88" font-weight="bold" gorn="0.3.368.0" id="text1892" stroke-width="0.192068" x="-138.633" y="24.4858">EN</text>
   </g>
   <g transform="rotate(-90)">
    <text fill="#ffffff" font-family="OCRA" font-size="2.88" font-weight="bold" gorn="0.3.369.0" id="text1894" stroke-width="0.192068" x="-140.586" y="57.0747">BOOT</text>
   </g>
   <ellipse cx="4.02001" cy="17.1008" fill="#666666" gorn="0.3.370" id="circle1906" rx="2.33072" ry="2.28036" stroke-width="0.192068"/>
   <rect fill="#999999" gorn="0.3.371" height="1.9063" id="rect1908" stroke="#ffffff" stroke-width="0.217965" width="1.74804" x="3.04168" y="16.1656"/>
   <g transform="matrix(2.69759, 0, 0, 2.64764, 0.322507, 6.23848)">
    <polyline fill="none" gorn="0.3.372.0" id="polyline1910" points="1.656,3.744,1.656,4.464,1.008,4.464" stroke="#000000" stroke-width="0.08136"/>
   </g>
   <ellipse cx="4.02001" cy="24.2944" fill="#666666" gorn="0.3.373" id="circle1914" rx="2.33072" ry="2.28036" stroke-width="0.192068"/>
   <rect fill="#999999" gorn="0.3.374" height="1.9063" id="rect1916" stroke="#ffffff" stroke-width="0.217965" width="1.74804" x="3.04168" y="23.3592"/>
   <g transform="matrix(2.69759, 0, 0, 2.64764, 0.322507, 6.23848)">
    <polyline fill="none" gorn="0.3.375.0" id="polyline1918" points="1.656,6.48,1.656,7.2,1.008,7.2" stroke="#000000" stroke-width="0.08136"/>
   </g>
   <ellipse cx="4.02001" cy="31.5599" fill="#666666" gorn="0.3.376" id="circle1922" rx="2.33072" ry="2.28036" stroke-width="0.192068"/>
   <rect fill="#999999" gorn="0.3.377" height="1.9063" id="rect1924" stroke="#ffffff" stroke-width="0.217965" width="1.74804" x="3.04168" y="30.4089"/>
   <g transform="matrix(2.69759, 0, 0, 2.64764, 0.322507, 6.23848)">
    <polyline fill="none" gorn="0.3.378.0" id="polyline1926" points="1.656,9.144,1.656,9.936,1.008,9.936" stroke="#000000" stroke-width="0.08136"/>
   </g>
   <ellipse cx="4.02001" cy="38.6096" fill="#666666" gorn="0.3.379" id="circle1930" rx="2.33072" ry="2.28036" stroke-width="0.192068"/>
   <rect fill="#999999" gorn="0.3.380" height="1.9063" id="rect1932" stroke="#ffffff" stroke-width="0.217965" width="1.74804" x="3.04168" y="37.6744"/>
   <g transform="matrix(2.69759, 0, 0, 2.64764, 0.322507, 6.23848)">
    <polyline fill="none" gorn="0.3.381.0" id="polyline1934" points="1.656,11.88,1.656,12.672,1.008,12.672" stroke="#000000" stroke-width="0.08136"/>
   </g>
   <ellipse cx="4.02001" cy="45.8031" fill="#666666" gorn="0.3.382" id="circle1938" rx="2.33072" ry="2.28036" stroke-width="0.192068"/>
   <rect fill="#999999" gorn="0.3.383" height="1.9063" id="rect1940" stroke="#ffffff" stroke-width="0.217965" width="1.74804" x="3.04168" y="44.868"/>
   <g transform="matrix(2.69759, 0, 0, 2.64764, 0.322507, 6.23848)">
    <polyline fill="none" gorn="0.3.384.0" id="polyline1942" points="1.656,14.616,1.656,15.336,1.008,15.336" stroke="#000000" stroke-width="0.08136"/>
   </g>
   <ellipse cx="4.02001" cy="53.0687" fill="#666666" gorn="0.3.385" id="circle1946" rx="2.33072" ry="2.28036" stroke-width="0.192068"/>
   <rect fill="#999999" gorn="0.3.386" height="1.9063" id="rect1948" stroke="#ffffff" stroke-width="0.217965" width="1.74804" x="3.04168" y="52.1335"/>
   <g transform="matrix(2.69759, 0, 0, 2.64764, 0.322507, 6.23848)">
    <polyline fill="none" gorn="0.3.387.0" id="polyline1950" points="1.656,17.352,1.656,18.072,1.008,18.072" stroke="#000000" stroke-width="0.08136"/>
   </g>
   <ellipse cx="4.02001" cy="60.2622" fill="#666666" gorn="0.3.388" id="circle1954" rx="2.33072" ry="2.28036" stroke-width="0.192068"/>
   <rect fill="#999999" gorn="0.3.389" height="1.9063" id="rect1956" stroke="#ffffff" stroke-width="0.217965" width="1.74804" x="3.04168" y="59.3271"/>
   <g transform="matrix(2.69759, 0, 0, 2.64764, 0.322507, 6.23848)">
    <polyline fill="none" gorn="0.3.390.0" id="polyline1958" points="1.656,20.088,1.656,20.808,1.008,20.808" stroke="#000000" stroke-width="0.08136"/>
   </g>
   <ellipse cx="4.02001" cy="67.5277" fill="#666666" gorn="0.3.391" id="circle1962" rx="2.33072" ry="2.28036" stroke-width="0.192068"/>
   <rect fill="#999999" gorn="0.3.392" height="1.9063" id="rect1964" stroke="#ffffff" stroke-width="0.217965" width="1.74804" x="3.04168" y="66.3768"/>
   <g transform="matrix(2.69759, 0, 0, 2.64764, 0.322507, 6.23848)">
    <polyline fill="none" gorn="0.3.393.0" id="polyline1966" points="1.656,22.752,1.656,23.544,1.008,23.544" stroke="#000000" stroke-width="0.08136"/>
   </g>
   <ellipse cx="4.02001" cy="74.5774" fill="#666666" gorn="0.3.394" id="circle1970" rx="2.33072" ry="2.28036" stroke-width="0.192068"/>
   <rect fill="#999999" gorn="0.3.395" height="1.9063" id="rect1972" stroke="#ffffff" stroke-width="0.217965" width="1.74804" x="3.04168" y="73.6423"/>
   <g transform="matrix(2.69759, 0, 0, 2.64764, 0.322507, 6.23848)">
    <polyline fill="none" gorn="0.3.396.0" id="polyline1974" points="1.656,25.488,1.656,26.28,1.008,26.28" stroke="#000000" stroke-width="0.08136"/>
   </g>
   <ellipse cx="4.02001" cy="81.771" fill="#666666" gorn="0.3.397" id="circle1978" rx="2.33072" ry="2.28036" stroke-width="0.192068"/>
   <rect fill="#999999" gorn="0.3.398" height="1.9063" id="rect1980" stroke="#ffffff" stroke-width="0.217965" width="1.74804" x="3.04168" y="80.8359"/>
   <g transform="matrix(2.69759, 0, 0, 2.64764, 0.322507, 6.23848)">
    <polyline fill="none" gorn="0.3.399.0" id="polyline1982" points="1.656,28.224,1.656,28.944,1.008,28.944" stroke="#000000" stroke-width="0.08136"/>
   </g>
   <ellipse cx="4.02001" cy="89.0365" fill="#666666" gorn="0.3.400" id="circle1986" rx="2.33072" ry="2.28036" stroke-width="0.192068"/>
   <rect fill="#999999" gorn="0.3.401" height="1.9063" id="rect1988" stroke="#ffffff" stroke-width="0.217965" width="1.74804" x="3.04168" y="88.1014"/>
   <g transform="matrix(2.69759, 0, 0, 2.64764, 0.322507, 6.23848)">
    <polyline fill="none" gorn="0.3.402.0" id="polyline1990" points="1.656,30.96,1.656,31.68,1.008,31.68" stroke="#000000" stroke-width="0.08136"/>
   </g>
   <ellipse cx="4.02001" cy="96.2301" fill="#666666" gorn="0.3.403" id="circle1994" rx="2.33072" ry="2.28036" stroke-width="0.192068"/>
   <rect fill="#999999" gorn="0.3.404" height="1.9063" id="rect1996" stroke="#ffffff" stroke-width="0.217965" width="1.74804" x="3.04168" y="95.2949"/>
   <g transform="matrix(2.69759, 0, 0, 2.64764, 0.322507, 6.23848)">
    <polyline fill="none" gorn="0.3.405.0" id="polyline1998" points="1.656,33.696,1.656,34.416,1.008,34.416" stroke="#000000" stroke-width="0.08136"/>
   </g>
   <ellipse cx="4.02001" cy="103.496" fill="#666666" gorn="0.3.406" id="circle2002" rx="2.33072" ry="2.28036" stroke-width="0.192068"/>
   <rect fill="#999999" gorn="0.3.407" height="1.9063" id="rect2004" stroke="#ffffff" stroke-width="0.217965" width="1.74804" x="3.04168" y="102.345"/>
   <g transform="matrix(2.69759, 0, 0, 2.64764, 0.322507, 6.23848)">
    <polyline fill="none" gorn="0.3.408.0" id="polyline2006" points="1.656,36.36,1.656,37.152,1.008,37.152" stroke="#000000" stroke-width="0.08136"/>
   </g>
   <ellipse cx="4.02001" cy="110.545" fill="#666666" gorn="0.3.409" id="circle2010" rx="2.33072" ry="2.28036" stroke-width="0.192068"/>
   <rect fill="#999999" gorn="0.3.410" height="1.9063" id="rect2012" stroke="#ffffff" stroke-width="0.217965" width="1.74804" x="3.04168" y="109.61"/>
   <g transform="matrix(2.69759, 0, 0, 2.64764, 0.322507, 6.23848)">
    <polyline fill="none" gorn="0.3.411.0" id="polyline2014" points="1.656,39.096,1.656,39.888,1.008,39.888" stroke="#000000" stroke-width="0.08136"/>
   </g>
   <rect fill="#b3b3b3" gorn="0.3.412" height="5.39518" id="rect2018" stroke-width="0.199981" width="5.39518" x="1.40154" y="115.077"/>
   <ellipse cx="4.02001" cy="117.739" fill="#666666" gorn="0.3.413" id="circle2020" rx="2.33072" ry="2.28036" stroke-width="0.192068"/>
   <rect fill="#999999" gorn="0.3.414" height="1.9063" id="rect2022" stroke="#ffffff" stroke-width="0.217965" width="1.74804" x="3.04168" y="116.804"/>
   <g transform="matrix(2.69759, 0, 0, 2.64764, 0.322507, 6.23848)">
    <polyline fill="none" gorn="0.3.415.0" id="polyline2024" points="1.656,41.832,1.656,42.552,1.008,42.552" stroke="#000000" stroke-width="0.08136"/>
   </g>
   <ellipse cx="75.927" cy="17.1475" fill="#666666" gorn="0.3.416" id="circle2060" rx="2.33072" ry="2.28036" stroke-width="0.192068"/>
   <rect fill="#999999" gorn="0.3.417" height="1.9063" id="rect2062" stroke="#ffffff" stroke-width="0.217965" width="1.74804" x="75.2076" y="16.2124"/>
   <g transform="matrix(2.69759, 0, 0, 2.64764, 6.21405, 6.28524)">
    <polyline fill="none" gorn="0.3.418.0" id="polyline2064" points="26.208,3.744,26.208,4.464,25.56,4.464" stroke="#000000" stroke-width="0.08136"/>
   </g>
   <ellipse cx="75.927" cy="24.3411" fill="#666666" gorn="0.3.419" id="circle2068" rx="2.33072" ry="2.28036" stroke-width="0.192068"/>
   <rect fill="#999999" gorn="0.3.420" height="1.9063" id="rect2070" stroke="#ffffff" stroke-width="0.217965" width="1.74804" x="75.2076" y="23.4059"/>
   <g transform="matrix(2.69759, 0, 0, 2.64764, 6.21405, 6.28524)">
    <polyline fill="none" gorn="0.3.421.0" id="polyline2072" points="26.208,6.48,26.208,7.2,25.56,7.2" stroke="#000000" stroke-width="0.08136"/>
   </g>
   <ellipse cx="75.927" cy="31.6066" fill="#666666" gorn="0.3.422" id="circle2076" rx="2.33072" ry="2.28036" stroke-width="0.192068"/>
   <rect fill="#999999" gorn="0.3.423" height="1.9063" id="rect2078" stroke="#ffffff" stroke-width="0.217965" width="1.74804" x="75.2076" y="30.4556"/>
   <g transform="matrix(2.69759, 0, 0, 2.64764, 6.21405, 6.28524)">
    <polyline fill="none" gorn="0.3.424.0" id="polyline2080" points="26.208,9.144,26.208,9.936,25.56,9.936" stroke="#000000" stroke-width="0.08136"/>
   </g>
   <ellipse cx="75.927" cy="38.6563" fill="#666666" gorn="0.3.425" id="circle2084" rx="2.33072" ry="2.28036" stroke-width="0.192068"/>
   <rect fill="#999999" gorn="0.3.426" height="1.9063" id="rect2086" stroke="#ffffff" stroke-width="0.217965" width="1.74804" x="75.2076" y="37.7212"/>
   <g transform="matrix(2.69759, 0, 0, 2.64764, 6.21405, 6.28524)">
    <polyline fill="none" gorn="0.3.427.0" id="polyline2088" points="26.208,11.88,26.208,12.672,25.56,12.672" stroke="#000000" stroke-width="0.08136"/>
   </g>
   <ellipse cx="75.927" cy="45.8499" fill="#666666" gorn="0.3.428" id="circle2092" rx="2.33072" ry="2.28036" stroke-width="0.192068"/>
   <rect fill="#999999" gorn="0.3.429" height="1.9063" id="rect2094" stroke="#ffffff" stroke-width="0.217965" width="1.74804" x="75.2076" y="44.9147"/>
   <g transform="matrix(2.69759, 0, 0, 2.64764, 6.21405, 6.28524)">
    <polyline fill="none" gorn="0.3.430.0" id="polyline2096" points="26.208,14.616,26.208,15.336,25.56,15.336" stroke="#000000" stroke-width="0.08136"/>
   </g>
   <ellipse cx="75.927" cy="53.1154" fill="#666666" gorn="0.3.431" id="circle2100" rx="2.33072" ry="2.28036" stroke-width="0.192068"/>
   <rect fill="#999999" gorn="0.3.432" height="1.9063" id="rect2102" stroke="#ffffff" stroke-width="0.217965" width="1.74804" x="75.2076" y="52.1802"/>
   <g transform="matrix(2.69759, 0, 0, 2.64764, 6.21405, 6.28524)">
    <polyline fill="none" gorn="0.3.433.0" id="polyline2104" points="26.208,17.352,26.208,18.072,25.56,18.072" stroke="#000000" stroke-width="0.08136"/>
   </g>
   <ellipse cx="75.927" cy="60.309" fill="#666666" gorn="0.3.434" id="circle2108" rx="2.33072" ry="2.28036" stroke-width="0.192068"/>
   <rect fill="#999999" gorn="0.3.435" height="1.9063" id="rect2110" stroke="#ffffff" stroke-width="0.217965" width="1.74804" x="75.2076" y="59.3738"/>
   <g transform="matrix(2.69759, 0, 0, 2.64764, 6.21405, 6.28524)">
    <polyline fill="none" gorn="0.3.436.0" id="polyline2112" points="26.208,20.088,26.208,20.808,25.56,20.808" stroke="#000000" stroke-width="0.08136"/>
   </g>
   <ellipse cx="75.927" cy="67.5745" fill="#666666" gorn="0.3.437" id="circle2116" rx="2.33072" ry="2.28036" stroke-width="0.192068"/>
   <rect fill="#999999" gorn="0.3.438" height="1.9063" id="rect2118" stroke="#ffffff" stroke-width="0.217965" width="1.74804" x="75.2076" y="66.4235"/>
   <g transform="matrix(2.69759, 0, 0, 2.64764, 6.21405, 6.28524)">
    <polyline fill="none" gorn="0.3.439.0" id="polyline2120" points="26.208,22.752,26.208,23.544,25.56,23.544" stroke="#000000" stroke-width="0.08136"/>
   </g>
   <ellipse cx="75.927" cy="74.6242" fill="#666666" gorn="0.3.440" id="circle2124" rx="2.33072" ry="2.28036" stroke-width="0.192068"/>
   <rect fill="#999999" gorn="0.3.441" height="1.9063" id="rect2126" stroke="#ffffff" stroke-width="0.217965" width="1.74804" x="75.2076" y="73.689"/>
   <g transform="matrix(2.69759, 0, 0, 2.64764, 6.21405, 6.28524)">
    <polyline fill="none" gorn="0.3.442.0" id="polyline2128" points="26.208,25.488,26.208,26.28,25.56,26.28" stroke="#000000" stroke-width="0.08136"/>
   </g>
   <ellipse cx="75.927" cy="81.8178" fill="#666666" gorn="0.3.443" id="circle2132" rx="2.33072" ry="2.28036" stroke-width="0.192068"/>
   <rect fill="#999999" gorn="0.3.444" height="1.9063" id="rect2134" stroke="#ffffff" stroke-width="0.217965" width="1.74804" x="75.2076" y="80.8826"/>
   <g transform="matrix(2.69759, 0, 0, 2.64764, 6.21405, 6.28524)">
    <polyline fill="none" gorn="0.3.445.0" id="polyline2136" points="26.208,28.224,26.208,28.944,25.56,28.944" stroke="#000000" stroke-width="0.08136"/>
   </g>
   <ellipse cx="75.927" cy="89.0833" fill="#666666" gorn="0.3.446" id="circle2140" rx="2.33072" ry="2.28036" stroke-width="0.192068"/>
   <rect fill="#999999" gorn="0.3.447" height="1.9063" id="rect2142" stroke="#ffffff" stroke-width="0.217965" width="1.74804" x="75.2076" y="88.1481"/>
   <g transform="matrix(2.69759, 0, 0, 2.64764, 6.21405, 6.28524)">
    <polyline fill="none" gorn="0.3.448.0" id="polyline2144" points="26.208,30.96,26.208,31.68,25.56,31.68" stroke="#000000" stroke-width="0.08136"/>
   </g>
   <ellipse cx="75.927" cy="96.2769" fill="#666666" gorn="0.3.449" id="circle2148" rx="2.33072" ry="2.28036" stroke-width="0.192068"/>
   <rect fill="#999999" gorn="0.3.450" height="1.9063" id="rect2150" stroke="#ffffff" stroke-width="0.217965" width="1.74804" x="75.2076" y="95.3417"/>
   <g transform="matrix(2.69759, 0, 0, 2.64764, 6.21405, 6.28524)">
    <polyline fill="none" gorn="0.3.451.0" id="polyline2152" points="26.208,33.696,26.208,34.416,25.56,34.416" stroke="#000000" stroke-width="0.08136"/>
   </g>
   <ellipse cx="75.927" cy="103.542" fill="#666666" gorn="0.3.452" id="circle2156" rx="2.33072" ry="2.28036" stroke-width="0.192068"/>
   <rect fill="#999999" gorn="0.3.453" height="1.9063" id="rect2158" stroke="#ffffff" stroke-width="0.217965" width="1.74804" x="75.2076" y="102.391"/>
   <g transform="matrix(2.69759, 0, 0, 2.64764, 6.21405, 6.28524)">
    <polyline fill="none" gorn="0.3.454.0" id="polyline2160" points="26.208,36.36,26.208,37.152,25.56,37.152" stroke="#000000" stroke-width="0.08136"/>
   </g>
   <ellipse cx="75.927" cy="110.592" fill="#666666" gorn="0.3.455" id="circle2164" rx="2.33072" ry="2.28036" stroke-width="0.192068"/>
   <rect fill="#999999" gorn="0.3.456" height="1.9063" id="rect2166" stroke="#ffffff" stroke-width="0.217965" width="1.74804" x="75.2076" y="109.657"/>
   <g transform="matrix(2.69759, 0, 0, 2.64764, 6.21405, 6.28524)">
    <polyline fill="none" gorn="0.3.457.0" id="polyline2168" points="26.208,39.096,26.208,39.888,25.56,39.888" stroke="#000000" stroke-width="0.08136"/>
   </g>
   <rect fill="#b3b3b3" gorn="0.3.458" height="5.39518" id="rect2172" stroke-width="0.199981" width="5.39518" x="73.2654" y="115.052"/>
   <ellipse cx="75.927" cy="117.786" fill="#666666" gorn="0.3.459" id="circle2174" rx="2.33072" ry="2.28036" stroke-width="0.192068"/>
   <rect fill="#999999" gorn="0.3.460" height="1.9063" id="rect2176" stroke="#ffffff" stroke-width="0.217965" width="1.74804" x="75.2076" y="116.85"/>
   <g transform="matrix(2.69759, 0, 0, 2.64764, 6.21405, 6.28524)">
    <polyline fill="none" gorn="0.3.461.0" id="polyline2178" points="26.208,41.832,26.208,42.552,25.56,42.552" stroke="#000000" stroke-width="0.08136"/>
   </g>
   <g transform="rotate(-90)">
    <text fill="#ffffff" font-family="OCRA" font-size="2.88" font-weight="bold" gorn="0.3.462.0" id="text473" stroke-width="0.192068" x="-19.2292" y="10.3163">EN</text>
   </g>
   <g transform="rotate(-90)">
    <text fill="#ffffff" font-family="OCRA" font-size="2.88" font-weight="bold" gorn="0.3.463.0" id="text475" stroke-width="0.192068" x="-26.212" y="10.3163">VP</text>
   </g>
   <g transform="rotate(-90)">
    <text fill="#ffffff" font-family="OCRA" font-size="2.88" font-weight="bold" gorn="0.3.464.0" id="text477" stroke-width="0.192068" x="-33.4056" y="10.3163">VN</text>
   </g>
   <g transform="rotate(-90)">
    <text fill="#ffffff" font-family="OCRA" font-size="2.88" font-weight="bold" gorn="0.3.465.0" id="text479" stroke-width="0.192068" x="-41.2773" y="10.3247">D34</text>
   </g>
   <g transform="rotate(-90)">
    <text fill="#ffffff" font-family="OCRA" font-size="2.88" font-weight="bold" gorn="0.3.466.0" id="text481" stroke-width="0.192068" x="-48.5056" y="10.3247">D35</text>
   </g>
   <g transform="rotate(-90)">
    <text fill="#ffffff" font-family="OCRA" font-size="2.88" font-weight="bold" gorn="0.3.467.0" id="text483" stroke-width="0.192068" x="-55.6992" y="10.3247">D32</text>
   </g>
   <g transform="rotate(-90)">
    <text fill="#ffffff" font-family="OCRA" font-size="2.88" font-weight="bold" gorn="0.3.468.0" id="text485" stroke-width="0.192068" x="-62.8928" y="10.3247">D33</text>
   </g>
   <g transform="rotate(-90)">
    <text fill="#ffffff" font-family="OCRA" font-size="2.88" font-weight="bold" gorn="0.3.469.0" id="text487" stroke-width="0.192068" x="-70.0693" y="10.3247">D25</text>
   </g>
   <g transform="rotate(-90)">
    <text fill="#ffffff" font-family="OCRA" font-size="2.88" font-weight="bold" gorn="0.3.470.0" id="text489" stroke-width="0.192068" x="-77.2799" y="10.3247">D26</text>
   </g>
   <g transform="rotate(-90)">
    <text fill="#ffffff" font-family="OCRA" font-size="2.88" font-weight="bold" gorn="0.3.471.0" id="text491" stroke-width="0.192068" x="-84.4735" y="10.3247">D27</text>
   </g>
   <g transform="rotate(-90)">
    <text fill="#ffffff" font-family="OCRA" font-size="2.88" font-weight="bold" gorn="0.3.472.0" id="text493" stroke-width="0.192068" x="-91.6671" y="10.3247">D14</text>
   </g>
   <g transform="rotate(-90)">
    <text fill="#ffffff" font-family="OCRA" font-size="2.88" font-weight="bold" gorn="0.3.473.0" id="text495" stroke-width="0.192068" x="-98.8612" y="10.3247">D12</text>
   </g>
   <g transform="rotate(-90)">
    <text fill="#ffffff" font-family="OCRA" font-size="2.88" font-weight="bold" gorn="0.3.474.0" id="text497" stroke-width="0.192068" x="-106.022" y="10.3247">D13</text>
   </g>
   <g transform="rotate(-90)">
    <text fill="#ffffff" font-family="OCRA" font-size="2.88" font-weight="bold" gorn="0.3.475.0" id="text499" stroke-width="0.192068" x="-113.178" y="10.3514">GND</text>
   </g>
   <g transform="rotate(-90)">
    <text fill="#ffffff" font-family="OCRA" font-size="2.88" font-weight="bold" gorn="0.3.476.0" id="text501" stroke-width="0.192068" x="-120.202" y="10.311">VIN</text>
   </g>
   <circle cx="6.23622" cy="6.23623" fill="#ffffff" gorn="0.3.477" id="path521" r="3.9685" stroke-width="0"/>
   <circle cx="73.7008" cy="6.23623" fill="#ffffff" gorn="0.3.478" id="circle523" r="3.9685" stroke-width="0"/>
   <circle cx="73.7008" cy="140.598" fill="#ffffff" gorn="0.3.479" id="circle525" r="3.9685" stroke-width="0"/>
   <circle cx="6.23622" cy="140.598" fill="#ffffff" gorn="0.3.480" id="circle527" r="3.9685" stroke-width="0"/>
   <g transform="rotate(-90)">
    <text fill="#ffffff" font-family="OCRA" font-size="2.88" font-weight="bold" gorn="0.3.481.0" id="text529" stroke-width="0.192068" x="-120.388" y="71.8882">3V3</text>
   </g>
   <g transform="rotate(-90)">
    <text fill="#ffffff" font-family="OCRA" font-size="2.88" font-weight="bold" gorn="0.3.482.0" id="text531" stroke-width="0.192068" x="-113.224" y="71.9149">GND</text>
   </g>
   <g transform="rotate(-90)">
    <text fill="#ffffff" font-family="OCRA" font-size="2.88" font-weight="bold" gorn="0.3.483.0" id="text535" stroke-width="0.192068" x="-106.101" y="71.8882">D15</text>
   </g>
   <g transform="rotate(-90)">
    <text fill="#ffffff" font-family="OCRA" font-size="2.88" font-weight="bold" gorn="0.3.484.0" id="text537" stroke-width="0.192068" x="-98.4039" y="71.8882">D2</text>
   </g>
   <g transform="rotate(-90)">
    <text fill="#ffffff" font-family="OCRA" font-size="2.88" font-weight="bold" gorn="0.3.485.0" id="text539" stroke-width="0.192068" x="-91.2103" y="71.8882">D4</text>
   </g>
   <g transform="rotate(-90)">
    <text fill="#ffffff" font-family="OCRA" font-size="2.88" font-weight="bold" gorn="0.3.486.0" id="text541" stroke-width="0.192402" x="-84.722" y="71.8646">RX2</text>
   </g>
   <g transform="rotate(-90)">
    <text fill="#ffffff" font-family="OCRA" font-size="2.88" font-weight="bold" gorn="0.3.487.0" id="text543" stroke-width="0.192068" x="-77.1806" y="71.8882">TX2</text>
   </g>
   <g transform="rotate(-90)">
    <text fill="#ffffff" font-family="OCRA" font-size="2.88" font-weight="bold" gorn="0.3.488.0" id="text545" stroke-width="0.192068" x="-69.6296" y="71.8798">D5</text>
   </g>
   <g transform="rotate(-90)">
    <text fill="#ffffff" font-family="OCRA" font-size="2.88" font-weight="bold" gorn="0.3.489.0" id="text547" stroke-width="0.192068" x="-62.9395" y="71.8882">D18</text>
   </g>
   <g transform="rotate(-90)">
    <text fill="#ffffff" font-family="OCRA" font-size="2.88" font-weight="bold" gorn="0.3.490.0" id="text549" stroke-width="0.192068" x="-55.746" y="71.8882">D19</text>
   </g>
   <g transform="rotate(-90)">
    <text fill="#ffffff" font-family="OCRA" font-size="2.88" font-weight="bold" gorn="0.3.491.0" id="text551" stroke-width="0.192068" x="-48.5524" y="71.8882">D21</text>
   </g>
   <g transform="rotate(-90)">
    <text fill="#ffffff" font-family="OCRA" font-size="2.88" font-weight="bold" gorn="0.3.492.0" id="text553" stroke-width="0.192068" x="-41.3616" y="71.8882">RX0</text>
   </g>
   <g transform="rotate(-90)">
    <text fill="#ffffff" font-family="OCRA" font-size="2.88" font-weight="bold" gorn="0.3.493.0" id="text555" stroke-width="0.192068" x="-34.0191" y="71.8882">TX0</text>
   </g>
   <g transform="rotate(-90)">
    <text fill="#ffffff" font-family="OCRA" font-size="2.88" font-weight="bold" gorn="0.3.494.0" id="text557" stroke-width="0.192068" x="-26.9717" y="71.8882">D22</text>
   </g>
   <g transform="matrix(0,-0.99990499,1.000095,0,0,0)">
    <text fill="#ffffff" font-family="OCRA" font-size="2.88013" font-weight="bold" gorn="0.3.495.0" id="text559" stroke-width="0.192068" x="-19.7802" y="71.8815">D23</text>
   </g>
  </g>
 </g>
</svg>
