<?xml version='1.0' encoding='UTF-8' standalone='no'?>
<!-- Created with Fritzing (https://fritzing.org/) -->
<svg xmlns="http://www.w3.org/2000/svg" baseProfile="tiny" height="0.725681in" version="1.2" viewBox="0 0 16.1241 52.249" width="0.223946in" x="0in"  xmlns:svg="http://www.w3.org/2000/svg" y="0in">
 <g id="watermark" >
  <g >
   <g >
    <path d="M-8.60789,46.049c-0.604,0,-1.131,0.325,-1.422,0.809l-2.796,0l3.96,-4.071c0.146,-0.146,0.289,-0.322,0.428,-0.521c0.149,-0.222,0.228,-0.479,0.228,-0.768c0,-0.279,-0.097,-0.518,-0.287,-0.71c-0.19,-0.188,-0.444,-0.287,-0.754,-0.287l-4.636,0c-0.305,0,-0.555,0.06,-0.742,0.17c-0.219,0.13,-0.33,0.368,-0.33,0.707c0,0.329,0.111,0.562,0.33,0.692c0.188,0.111,0.438,0.168,0.742,0.168l3.148,0l-3.974,4.086c-0.146,0.147,-0.289,0.315,-0.425,0.504c-0.153,0.212,-0.23,0.472,-0.23,0.771c0,0.28,0.096,0.521,0.288,0.711c0.188,0.188,0.442,0.285,0.754,0.285l4.315,0c0.293,0.467,0.812,0.776,1.4,0.776c0.916,0,1.66,-0.744,1.66,-1.661C-6.94889,46.794,-7.69389,46.049,-8.60789,46.049zM-8.60789,48.312c-0.334,0,-0.604,-0.271,-0.604,-0.604c0,-0.333,0.27,-0.604,0.604,-0.604c0.332,0,0.604,0.271,0.604,0.604C-8.00489,48.043,-8.27589,48.312,-8.60789,48.312z" fill="#8C8C8C" />
    <path d="M-25.5509,36.007c-0.914,0,-1.659,0.745,-1.659,1.66c0,0.916,0.745,1.66,1.659,1.66s1.658,-0.744,1.658,-1.66C-23.8909,36.752,-24.6349,36.007,-25.5509,36.007zM-25.5499,38.27c-0.333,0,-0.604,-0.27,-0.604,-0.603s0.271,-0.603,0.604,-0.603c0.331,0,0.604,0.27,0.604,0.603S-25.2189,38.27,-25.5499,38.27z" fill="#8C8C8C" />
    <path d="M-17.0299,40.669c-0.193,-0.111,-0.439,-0.169,-0.732,-0.169l-1.465,0L-19.2269,37.978c0,-0.292,-0.057,-0.538,-0.166,-0.729C-19.4829,37.092,-19.6759,36.907,-20.0859,36.907c-0.34,0,-0.578,0.116,-0.709,0.342c-0.109,0.193,-0.167,0.438,-0.167,0.729l0,2.521l-0.481,0c-0.295,0,-0.539,0.06,-0.731,0.169c-0.228,0.129,-0.341,0.368,-0.341,0.708c0,0.412,0.185,0.603,0.341,0.692c0.192,0.111,0.438,0.168,0.731,0.168l0.481,0l0,4.362c0,0.277,0.026,0.533,0.081,0.768c0.056,0.246,0.154,0.464,0.298,0.645c0.146,0.186,0.345,0.332,0.595,0.436c0.241,0.098,0.555,0.146,0.93,0.146l0.896,0c0.292,0,0.539,-0.054,0.731,-0.166c0.154,-0.089,0.341,-0.281,0.341,-0.693c0,-0.338,-0.114,-0.578,-0.341,-0.709c-0.192,-0.109,-0.439,-0.168,-0.731,-0.168l-0.821,0c-0.138,0,-0.19,-0.019,-0.207,-0.024c-0.014,-0.034,-0.035,-0.103,-0.035,-0.231L-19.2249,42.237l1.465,0c0.295,0,0.541,-0.057,0.734,-0.168c0.152,-0.09,0.34,-0.28,0.34,-0.692C-16.6899,41.037,-16.8029,40.798,-17.0299,40.669z" fill="#8C8C8C" />
    <path d="M-25.4849,40.499l-1.191,0c-0.292,0,-0.538,0.059,-0.731,0.169c-0.226,0.129,-0.341,0.368,-0.341,0.708c0,0.412,0.188,0.604,0.341,0.691c0.193,0.113,0.439,0.168,0.731,0.168l0.544,0l0,5.362c0,0.293,0.057,0.539,0.167,0.73c0.131,0.227,0.367,0.341,0.708,0.341c0.411,0,0.604,-0.187,0.692,-0.341c0.111,-0.191,0.168,-0.438,0.168,-0.73L-24.3969,41.587c0,-0.386,-0.084,-0.656,-0.256,-0.83C-24.8279,40.585,-25.0979,40.499,-25.4849,40.499z" fill="#8C8C8C" />
    <path d="M-29.3199,40.669c-0.193,-0.111,-0.44,-0.169,-0.732,-0.169l-0.604,0c-0.25,0,-0.498,0.063,-0.734,0.187c-0.226,0.119,-0.433,0.271,-0.616,0.453l-0.644,0.604l0,-0.247c0,-0.291,-0.055,-0.538,-0.168,-0.729c-0.128,-0.228,-0.368,-0.34,-0.707,-0.34c-0.41,0,-0.604,0.184,-0.693,0.34c-0.11,0.191,-0.167,0.438,-0.167,0.729l0,4.801c-0.475,0.293,-0.791,0.816,-0.791,1.412c0,0.917,0.745,1.661,1.658,1.661c0.916,0,1.66,-0.744,1.66,-1.661c0,-0.596,-0.317,-1.119,-0.792,-1.412l0,-2.21l1.738,-1.564c0.1,-0.09,0.199,-0.164,0.297,-0.217c0.084,-0.045,0.174,-0.067,0.274,-0.067l0.288,0c0.292,0,0.539,-0.056,0.732,-0.169c0.155,-0.088,0.339,-0.279,0.339,-0.691C-28.9799,41.037,-29.0949,40.798,-29.3199,40.669zM-33.5189,48.312c-0.332,0,-0.603,-0.271,-0.603,-0.604c0,-0.333,0.271,-0.604,0.603,-0.604c0.333,0,0.604,0.271,0.604,0.604C-32.9149,48.043,-33.1859,48.312,-33.5189,48.312z" fill="#8C8C8C" />
    <path d="M-36.0359,37.15c-0.193,-0.111,-0.44,-0.167,-0.731,-0.167l-0.59,0c-0.2,0,-0.389,0.004,-0.562,0.016c-0.176,0.009,-0.345,0.035,-0.506,0.07c-0.168,0.041,-0.336,0.109,-0.496,0.202c-0.158,0.093,-0.319,0.222,-0.48,0.382c-0.334,0.314,-0.554,0.656,-0.652,1.017c-0.094,0.348,-0.143,0.735,-0.143,1.151l0,0.678l-0.483,0c-0.292,0,-0.539,0.059,-0.73,0.169c-0.227,0.13,-0.342,0.369,-0.342,0.708c0,0.412,0.185,0.604,0.341,0.693c0.191,0.111,0.438,0.166,0.73,0.166l0.483,0l0,5.362c0,0.293,0.057,0.539,0.167,0.73c0.13,0.227,0.367,0.341,0.708,0.341c0.411,0,0.603,-0.187,0.692,-0.341c0.111,-0.191,0.168,-0.438,0.168,-0.73l0,-5.36l0.92,0c0.293,0,0.54,-0.057,0.732,-0.168c0.155,-0.09,0.34,-0.28,0.34,-0.692c0,-0.34,-0.114,-0.579,-0.34,-0.708c-0.189,-0.111,-0.436,-0.17,-0.729,-0.17l-0.92,0l0,-0.678c0,-0.218,0.019,-0.41,0.056,-0.571c0.032,-0.141,0.103,-0.261,0.218,-0.367l0.002,-0.004l0.002,-0.002c0.082,-0.082,0.176,-0.126,0.29,-0.136c0.15,-0.015,0.339,-0.022,0.564,-0.022l0.56,0c0.291,0,0.539,-0.058,0.731,-0.168c0.154,-0.088,0.339,-0.281,0.339,-0.693C-35.6959,37.519,-35.8109,37.28,-36.0359,37.15z" fill="#8C8C8C" />
    <path d="M15.9571,40.767c-0.089,-0.156,-0.282,-0.34,-0.693,-0.34c-0.339,0,-0.578,0.113,-0.707,0.34c-0.078,0.133,-0.127,0.293,-0.152,0.477l-0.021,-0.021c-0.216,-0.236,-0.466,-0.42,-0.747,-0.539c-0.277,-0.119,-0.563,-0.183,-0.849,-0.183l-0.709,0c-0.249,0,-0.466,0.015,-0.64,0.041c-0.182,0.026,-0.352,0.074,-0.51,0.14c-0.158,0.066,-0.313,0.15,-0.459,0.254c-0.139,0.097,-0.303,0.226,-0.486,0.377c-0.188,0.156,-0.342,0.302,-0.463,0.434c-0.127,0.141,-0.23,0.293,-0.306,0.455c-0.069,0.16,-0.122,0.337,-0.147,0.523c-0.026,0.178,-0.041,0.391,-0.041,0.631l0,2.386c0,0.24,0.015,0.451,0.041,0.631c0.025,0.188,0.078,0.361,0.147,0.521c0.074,0.164,0.179,0.318,0.306,0.457c0.119,0.129,0.274,0.274,0.463,0.433c0.186,0.153,0.35,0.28,0.486,0.379c0.146,0.103,0.299,0.188,0.459,0.254c0.158,0.065,0.329,0.112,0.51,0.14c0.174,0.026,0.389,0.039,0.64,0.039l0.709,0c0.298,0,0.591,-0.066,0.87,-0.199c0.244,-0.114,0.492,-0.291,0.73,-0.523l0,1.434c0,0.18,-0.025,0.334,-0.072,0.465c-0.043,0.119,-0.159,0.258,-0.344,0.406c-0.154,0.127,-0.309,0.217,-0.457,0.264c-0.15,0.049,-0.341,0.074,-0.563,0.074l-2.203,0c-0.293,0,-0.538,0.055,-0.732,0.166c-0.152,0.088,-0.34,0.282,-0.34,0.692c0,0.341,0.115,0.579,0.34,0.71c0.194,0.109,0.439,0.167,0.732,0.167l2.326,0c0.247,0,0.463,-0.015,0.638,-0.041c0.179,-0.026,0.351,-0.073,0.513,-0.14c0.153,-0.064,0.31,-0.15,0.455,-0.254c0.143,-0.101,0.305,-0.227,0.487,-0.379c0.185,-0.153,0.343,-0.299,0.463,-0.431c0.128,-0.141,0.229,-0.294,0.304,-0.456c0.071,-0.162,0.123,-0.338,0.148,-0.523c0.025,-0.182,0.041,-0.393,0.041,-0.631l0,-7.898C16.1241,41.205,16.0701,40.958,15.9571,40.767zM14.3881,45.227c0,0.188,-0.062,0.35,-0.188,0.49c-0.15,0.172,-0.394,0.403,-0.716,0.686l-0.002,0.003l-0.002,0.004c-0.139,0.13,-0.291,0.237,-0.453,0.325c-0.148,0.082,-0.325,0.121,-0.526,0.121L12.2001,46.856c-0.222,0,-0.41,-0.021,-0.563,-0.072c-0.148,-0.049,-0.301,-0.137,-0.453,-0.264c-0.231,-0.186,-0.315,-0.322,-0.346,-0.404c-0.049,-0.131,-0.072,-0.285,-0.072,-0.465l0,-2.206c0,-0.18,0.023,-0.336,0.072,-0.467c0.029,-0.082,0.113,-0.217,0.346,-0.403c0.152,-0.127,0.305,-0.216,0.453,-0.265c0.153,-0.049,0.342,-0.072,0.563,-0.072l0.301,0c0.212,0,0.388,0.037,0.526,0.113c0.152,0.082,0.308,0.191,0.457,0.324c0.322,0.293,0.564,0.529,0.716,0.7c0.128,0.146,0.188,0.304,0.188,0.492L14.3881,45.227z" fill="#8C8C8C" />
    <path d="M-4.02189,36.007c-0.914,0,-1.66,0.745,-1.66,1.66c0,0.916,0.746,1.66,1.66,1.66s1.66,-0.744,1.66,-1.66C-2.36189,36.752,-3.10789,36.007,-4.02189,36.007zM-4.02189,38.27c-0.332,0,-0.604,-0.27,-0.604,-0.603s0.271,-0.603,0.604,-0.603s0.604,0.27,0.604,0.603C-3.41789,38,-3.68989,38.27,-4.02189,38.27z" fill="#8C8C8C" />
    <path d="M6.66411,46.275l-0.107,-3.419c-0.011,-0.178,-0.021,-0.338,-0.031,-0.489c-0.01,-0.162,-0.037,-0.322,-0.082,-0.476c-0.045,-0.158,-0.11,-0.309,-0.198,-0.453c-0.093,-0.146,-0.216,-0.289,-0.37,-0.42c-0.225,-0.192,-0.443,-0.334,-0.646,-0.416c-0.207,-0.084,-0.461,-0.127,-0.754,-0.127l-1.012,0c-0.259,0,-0.501,0.058,-0.716,0.164c-0.197,0.098,-0.39,0.203,-0.572,0.315l-0.003,0.002l-0.003,0.003l-0.837,0.555l0,-0.041c0,-0.291,-0.057,-0.539,-0.168,-0.733c-0.129,-0.226,-0.367,-0.339,-0.707,-0.339c-0.411,0,-0.604,0.185,-0.693,0.339c-0.109,0.194,-0.168,0.438,-0.168,0.733l0,6.099c0,0.295,0.059,0.539,0.168,0.734c0.09,0.153,0.282,0.338,0.693,0.338c0.34,0,0.578,-0.114,0.707,-0.338c0.111,-0.195,0.168,-0.439,0.168,-0.734L1.33311,43.537l1.953,-1.215c0.04,-0.024,0.082,-0.048,0.121,-0.063c0.031,-0.016,0.07,-0.025,0.115,-0.031c0.049,-0.012,0.117,-0.016,0.195,-0.016l0.362,0c0.188,0,0.334,0.021,0.435,0.059c0.082,0.029,0.143,0.076,0.18,0.143c0.05,0.078,0.08,0.18,0.098,0.303c0.02,0.139,0.034,0.309,0.045,0.504l0.096,3.097c-0.457,0.297,-0.762,0.811,-0.762,1.394c0,0.917,0.746,1.661,1.66,1.661c0.916,0,1.66,-0.744,1.66,-1.661C7.49011,47.1,7.15711,46.562,6.66411,46.275zM5.83011,48.312c-0.334,0,-0.602,-0.271,-0.602,-0.604c0,-0.333,0.268,-0.604,0.602,-0.604c0.333,0,0.604,0.271,0.604,0.604C6.43511,48.043,6.16311,48.312,5.83011,48.312z" fill="#8C8C8C" />
    <path d="M-3.95889,40.499l-1.193,0c-0.293,0,-0.539,0.059,-0.731,0.169c-0.226,0.129,-0.341,0.368,-0.341,0.708c0,0.412,0.186,0.604,0.341,0.691c0.192,0.113,0.438,0.168,0.731,0.168l0.545,0l0,5.362c0,0.293,0.055,0.539,0.168,0.73c0.127,0.227,0.365,0.341,0.707,0.341c0.41,0,0.604,-0.187,0.691,-0.341c0.111,-0.191,0.17,-0.438,0.17,-0.73L-2.87089,41.587c0,-0.386,-0.085,-0.656,-0.259,-0.83C-3.30189,40.585,-3.57489,40.499,-3.95889,40.499z" fill="#8C8C8C" />
   </g>
  </g>
 </g>
 <g partID="855147970">
  <g transform="translate(0.668059,0)">
   <g id="breadboard" >
    <rect fill="none" height="0.72" id="connector0pin" width="2.151" x="3.451"  y="25.421"/>
    <rect fill="none" height="0.72" id="connector1pin" width="2.154" x="10.651"  y="25.421"/>
    <g fill="none" id="connector0leg" stroke="#8C8C8C" stroke-linecap="round" stroke-width="1.98801" x1="4.527" x2="4.527"  y1="29.207" y2="53.822"/>
    <g fill="none" id="connector1leg" stroke="#8C8C8C" stroke-linecap="round" stroke-width="1.98801" x1="11.729" x2="11.729"  y1="29.207" y2="53.822"/>
    <rect fill="#8C8C8C" height="9.828" width="2.151" x="3.451"  y="19.379"/>
    <path d="M12.805,29.207c0,-1.174,-1.065,-2.103,-2.089,-2.992c-0.416001,-0.367001,-1.199,-1.001,-1.199,-1.424L9.51703,19.32L7.35602,19.32L7.35602,25.1c0,1.059,0.947002,1.879,1.946,2.748c0.444001,0.377,1.349,1.25,1.349,1.771" fill="#8C8C8C" />
    <g id="g12" >
     <path d="M11.694,14.099L11.694,9.79999c0,-2.845,-2.30301,-5.153,-5.15101,-5.153C3.69801,4.647,1.39,6.951,1.39,9.79999l0,9.92102c1.071,1.201,2.97901,2.001,5.15301,2.001c3.35901,0,6.08301,-1.902,6.08301,-4.26l0,-1.107C12.626,15.525,12.281,14.754,11.694,14.099z" enable-background="new    " fill="#e60000" id="color_path14" opacity="0.3" />
     <path d="M11.694,14.099L11.694,9.79999c0,-2.845,-2.30301,-5.153,-5.15101,-5.153C3.69801,4.647,1.39,6.951,1.39,9.79999l0,9.92102c1.071,1.201,2.97901,2.001,5.15301,2.001c3.35901,0,6.08301,-1.902,6.08301,-4.26l0,-1.107C12.626,15.525,12.281,14.754,11.694,14.099z" enable-background="new    " fill="#E6E6E6" id="path16" opacity="0.5" />
     <path d="M11.694,14.099l0,2.257c0,1.991,-2.301,3.608,-5.15101,3.608c-2.84501,0,-5.15301,-1.612,-5.15301,-3.608l0,2.257l0,1.109c1.071,1.2,2.97901,2,5.15301,2c3.35901,0,6.08301,-1.902,6.08301,-4.26l0,-1.106C12.626,15.525,12.281,14.754,11.694,14.099z" enable-background="new    " fill="#D1D1D1" id="path18" opacity="0.9" />
     <path d="M11.694,14.099l0,2.257c0,1.991,-2.301,3.608,-5.15101,3.608c-2.84501,0,-5.15301,-1.612,-5.15301,-3.608l0,2.257l0,1.109c1.071,1.2,2.97901,2,5.15301,2c3.35901,0,6.08301,-1.902,6.08301,-4.26l0,-1.106C12.626,15.525,12.281,14.754,11.694,14.099z" enable-background="new    " fill="#e60000" id="color_path20" opacity="0.7" />
     <path d="M11.694,14.099l0,2.257c0,1.991,-2.301,3.608,-5.15101,3.608c-2.84501,0,-5.15301,-1.612,-5.15301,-3.608l0,2.257c1.071,1.2,2.97901,2.001,5.15301,2.001c3.35901,0,6.08301,-1.903,6.08301,-4.259C12.626,15.525,12.281,14.754,11.694,14.099z" enable-background="new    " fill="#e60000" id="color_path22" opacity="0.25" />
     <ellipse cx="6.54301" cy="16.356" enable-background="new    " fill="#E6E6E6" id="ellipse24" opacity="0.25" rx="5.15301" ry="3.606" />
     <ellipse cx="6.54301" cy="16.356" enable-background="new    " fill="#e60000" id="color_ellipse26" opacity="0.25" rx="5.15301" ry="3.606" />
     <polygon fill="#666666" id="polygon28" points="2.991,11.661,2.991,16.355,3.714,16.355,3.714,14.167,5.76301,14.167,8.66801,11.048,3.867,11.048" />
     <polygon fill="#666666" id="polygon30" points="9.22601,10.844,9.54403,11.214,6.77801,14.167,9.43099,14.167,9.43099,16.355,10.095,16.355,10.095,10.844" />
     <path d="M11.694,14.099L11.694,9.79999c0,-2.845,-2.30301,-5.153,-5.15101,-5.153C3.69801,4.647,1.39,6.951,1.39,9.79999l0,9.92102c1.071,1.201,2.97901,2.001,5.15301,2.001c3.35901,0,6.08301,-1.902,6.08301,-4.26l0,-1.107C12.626,15.525,12.281,14.754,11.694,14.099z" enable-background="new    " fill="#e60000" id="color_path32" opacity="0.65" />
     <path d="M8.94305,7.37604l1.043,-0.199C9.37404,6.354,8.47303,5.754,7.41103,5.55l0.186,0.786002C8.15198,6.53201,8.61905,6.90301,8.94305,7.37604z" enable-background="new    " fill="#FFFFFF" id="path34" opacity="0.5" />
     <path d="M1.948,19.132l0,1.104c0.472001,0.385001,1.042,0.710001,1.677,0.957002l0,-1.107C2.98801,19.841,2.422,19.518,1.948,19.132z" enable-background="new    " fill="#FFFFFF" id="path36" opacity="0.5" />
     <path d="M9.43999,19.338c-0.186,0.0889999,-0.385001,0.167,-0.585001,0.239c-0.042,0.015,-0.0860004,0.03,-0.13,0.0430001c-0.41,0.131,-0.843998,0.231,-1.305,0.287c-0.0540001,0.00700001,-0.11,0.015,-0.164,0.015c-0.233001,0.021,-0.468001,0.042,-0.706001,0.042c-0.108,0,-0.223001,-0.012,-0.343001,-0.018c-0.873,-0.042,-1.694,-0.229,-2.397,-0.537l0,-6.098L3.81,9.80302c0,-1.069,0.616001,-1.984,1.507,-2.435L5.30201,7.33003l-0.906998,-1.1C3.181,6.959,2.36701,8.28101,2.36701,9.801l0,8.65303c-0.0360001,-0.035,-0.224001,-0.224,-0.349001,-0.384l-0.224001,0.499c1.019,1.077,2.769,1.789,4.757,1.789c1.222,0,2.354,-0.271,3.28,-0.727999l-0.383,-0.298C9.43999,19.338,9.43999,19.338,9.43999,19.338z" enable-background="new    " fill="#FFFFFF" id="path38" opacity="0.5" />
    </g>
   </g>
  </g>
 </g>
 <path d="M0.994003,3.87518L0.994003,2.1029" fill="none" opacity="1" stroke="#8c8c8c" stroke-linecap="round" stroke-linejoin="round" stroke-width="1.98801"/>
 <path d="M0.994003,3.87518L0.994003,2.1029" fill="none" opacity="0.3" stroke="#ff0000" stroke-linecap="round" stroke-linejoin="round" stroke-width="1.98801"/>
 <path d="M1.51255,3.87518L1.51255,2.1029" fill="none" opacity="1" stroke="#8c8c8c" stroke-linecap="round" stroke-linejoin="round" stroke-width="1.98801"/>
 <path d="M1.51255,3.87518L1.51255,2.1029" fill="none" opacity="0.3" stroke="#ff0000" stroke-linecap="round" stroke-linejoin="round" stroke-width="1.98801"/>
</svg>
